<svg width="26" height="26" viewBox="0 0 26 26" fill="none" xmlns="http://www.w3.org/2000/svg">
<g clip-path="url(#clip0_2536_390)">
<path d="M24.3372 22.1867H23.2791V13.7346H21.1628V22.1867H16.9302V13.7346H14.814V22.1867H10.5814V13.7346H8.46512V22.1867H4.23256V13.7346H2.11628V22.1867H1.05814C0.474047 22.1867 0 22.659 0 23.2432C0 23.8275 0.474047 24.2997 1.05814 24.2997H24.3372C24.9213 24.2997 25.3953 23.8275 25.3953 23.2432C25.3953 22.659 24.9213 22.1867 24.3372 22.1867Z" fill="white"/>
<path d="M24.8441 6.46792L13.2045 0.128869C12.8881 -0.0422851 12.5072 -0.0422851 12.1908 0.128869L0.551291 6.46792C0.211628 6.65281 0 7.00886 0 7.39554V10.5651C0 11.1493 0.474047 11.6216 1.05814 11.6216H24.3372C24.9213 11.6216 25.3953 11.1493 25.3953 10.5651V7.39554C25.3953 7.00886 25.1837 6.65281 24.8441 6.46792ZM12.6977 8.45205C11.5284 8.45205 10.5814 7.50647 10.5814 6.33903C10.5814 5.17159 11.5284 4.22601 12.6977 4.22601C13.8669 4.22601 14.814 5.17159 14.814 6.33903C14.814 7.50647 13.8669 8.45205 12.6977 8.45205Z" fill="white"/>
</g>
<defs>
<clipPath id="clip0_2536_390">
<rect width="25.3953" height="25.3562" fill="white"/>
</clipPath>
</defs>
</svg>
