<svg width="106" height="109" viewBox="0 0 106 109" fill="none" xmlns="http://www.w3.org/2000/svg">
<ellipse cx="52.7064" cy="97.4196" rx="52.7064" ry="11.413" fill="#F2F1F9"/>
<path d="M59.367 66.1465L33.3117 66.0434C30.1777 66.0313 27.6494 63.8334 27.6612 61.1339L27.9382 4.86909C27.9523 2.16766 30.504 -0.0120817 33.6404 5.03996e-05L59.6957 0.103173C62.8296 0.115305 65.3579 2.31325 65.3462 5.01265L65.0692 61.2775C65.0575 63.9789 62.5033 66.1587 59.367 66.1465Z" fill="#3629B7"/>
<path d="M59.6575 2.04634L54.6056 2.02612C53.9271 2.0241 53.3755 2.51545 53.3731 3.1261L53.3684 3.91469C53.3661 4.52534 52.8144 5.01669 52.136 5.01467L42.288 4.97625C41.6096 4.97423 41.065 4.47681 41.0673 3.86616L41.072 3.07757C41.0744 2.46692 40.5274 1.97152 39.8513 1.96748L38.0742 1.95939L33.6538 1.94119C31.4588 1.93311 29.67 3.45974 29.6606 5.35033L29.3907 60.2685C29.3813 62.1591 31.1513 63.6979 33.3463 63.706L59.3499 63.8091C61.5449 63.8172 63.3337 62.2906 63.3431 60.4L63.6131 5.48176C63.6248 3.59319 61.8524 2.05443 59.6575 2.04634Z" fill="white"/>
<rect x="31.5801" y="85.4421" width="31.815" height="7.02722" rx="3.51361" fill="#FFAF2A"/>
<path d="M45.1821 87.9612C45.1821 88.1105 45.1461 88.2505 45.0741 88.3812C45.0048 88.5119 44.8941 88.6172 44.7421 88.6972C44.5928 88.7772 44.4035 88.8172 44.1741 88.8172H43.7061V89.8892H43.1461V87.0972H44.1741C44.3901 87.0972 44.5741 87.1345 44.7261 87.2092C44.8781 87.2839 44.9915 87.3865 45.0661 87.5172C45.1435 87.6479 45.1821 87.7959 45.1821 87.9612ZM44.1501 88.3652C44.3048 88.3652 44.4195 88.3305 44.4941 88.2612C44.5688 88.1892 44.6061 88.0892 44.6061 87.9612C44.6061 87.6892 44.4541 87.5532 44.1501 87.5532H43.7061V88.3652H44.1501ZM45.4357 88.7732C45.4357 88.5492 45.4797 88.3505 45.5677 88.1772C45.6584 88.0039 45.7797 87.8705 45.9317 87.7772C46.0864 87.6839 46.2584 87.6372 46.4477 87.6372C46.613 87.6372 46.757 87.6705 46.8797 87.7372C47.005 87.8039 47.105 87.8879 47.1797 87.9892V87.6732H47.7437V89.8892H47.1797V89.5652C47.1077 89.6692 47.0077 89.7559 46.8797 89.8252C46.7544 89.8919 46.609 89.9252 46.4437 89.9252C46.257 89.9252 46.0864 89.8772 45.9317 89.7812C45.7797 89.6852 45.6584 89.5505 45.5677 89.3772C45.4797 89.2012 45.4357 88.9999 45.4357 88.7732ZM47.1797 88.7812C47.1797 88.6452 47.153 88.5292 47.0997 88.4332C47.0464 88.3345 46.9744 88.2599 46.8837 88.2092C46.793 88.1559 46.6957 88.1292 46.5917 88.1292C46.4877 88.1292 46.3917 88.1545 46.3037 88.2052C46.2157 88.2559 46.1437 88.3305 46.0877 88.4292C46.0344 88.5252 46.0077 88.6399 46.0077 88.7732C46.0077 88.9065 46.0344 89.0239 46.0877 89.1252C46.1437 89.2239 46.2157 89.2999 46.3037 89.3532C46.3944 89.4065 46.4904 89.4332 46.5917 89.4332C46.6957 89.4332 46.793 89.4079 46.8837 89.3572C46.9744 89.3039 47.0464 89.2292 47.0997 89.1332C47.153 89.0345 47.1797 88.9172 47.1797 88.7812ZM50.4106 87.6732L49.0386 90.9372H48.4426L48.9226 89.8332L48.0346 87.6732H48.6626L49.2346 89.2212L49.8146 87.6732H50.4106Z" fill="white"/>
<g clip-path="url(#clip0_2014_3414)">
<path d="M49.8092 53.1368V50.3977H53.0035C53.5916 50.3977 54.0683 49.9889 54.0683 49.4847C54.0683 48.9804 53.5916 48.5716 53.0035 48.5716H44.4853C43.8973 48.5716 43.4206 48.9804 43.4206 49.4847C43.4206 49.9889 43.8973 50.3977 44.4853 50.3977H47.6797V53.1368H42.3558C38.2459 53.1368 34.9023 56.0039 34.9023 59.5281V61.3542H39.1614V59.5281C39.1614 58.0177 40.5943 56.789 42.3558 56.789H57.2626V53.1368H49.8092Z" fill="#3629B7"/>
<path d="M33.8379 67.7455C33.8379 69.4802 35.4351 70.4846 37.0322 70.4846C38.6294 70.4846 40.2265 69.4802 40.2265 67.7455C40.2265 66.0107 37.0322 63.1803 37.0322 63.1803C37.0322 63.1803 33.8379 66.0107 33.8379 67.7455Z" fill="#3629B7"/>
</g>
<line x1="56.6982" y1="51.311" x2="56.6982" y2="58.6153" stroke="#5655B9"/>
<g clip-path="url(#clip1_2014_3414)">
<path d="M17.9869 81.7153C17.7829 81.5492 17.5123 81.4566 17.2309 81.4566C16.9495 81.4566 16.6789 81.5492 16.4749 81.7153C16.115 82.023 7.64792 89.3949 7.64792 94.224C7.63554 95.3061 7.87496 96.3794 8.35216 97.3812C8.82937 98.383 9.53478 99.2931 10.4271 100.058C11.3195 100.823 12.3808 101.428 13.5491 101.838C14.7173 102.247 15.969 102.452 17.2309 102.441C18.4928 102.452 19.7445 102.247 20.9127 101.838C22.081 101.428 23.1423 100.823 24.0347 100.058C24.927 99.2931 25.6324 98.383 26.1096 97.3812C26.5868 96.3794 26.8263 95.3061 26.8139 94.224C26.8139 89.3949 18.3468 82.023 17.9869 81.7153ZM18.2957 97.8762H17.2309C16.669 97.8842 16.111 97.7952 15.59 97.6145C15.069 97.4338 14.5958 97.1651 14.1984 96.8244C13.801 96.4836 13.4877 96.0778 13.2769 95.6311C13.0662 95.1844 12.9624 94.7058 12.9718 94.224V93.311H15.1014V94.224C15.1014 94.7083 15.3257 95.1728 15.7251 95.5153C16.1245 95.8577 16.6661 96.0501 17.2309 96.0501H18.2957V97.8762Z" fill="#3629B7"/>
</g>
<path d="M84.2439 63.5603C82.7129 68.8784 76.4484 72.1254 70.2499 70.8112C69.4032 70.6315 68.6015 70.3764 67.8522 70.0553C66.9099 69.6524 66.0506 69.1454 65.2892 68.5565C64.6094 68.0308 64.0078 67.439 63.4942 66.7969C63.3371 66.6007 63.1882 66.3997 63.0486 66.1941C62.4327 65.2921 61.9818 64.307 61.7217 63.2746C61.6707 63.0729 61.6268 62.8698 61.591 62.665C61.3695 61.4143 61.4254 60.1061 61.801 58.8019C61.8352 58.6828 61.8725 58.5642 61.913 58.4463C63.614 53.3397 69.7372 50.2667 75.7949 51.5509C77.2857 51.8669 78.6366 52.4182 79.8075 53.1466C80.0335 53.2875 80.2531 53.4347 80.4655 53.5887C81.394 54.2598 82.1881 55.0495 82.8242 55.9232C82.9645 56.1158 83.0969 56.3121 83.2215 56.5126C83.6648 57.2252 84.0078 57.9847 84.2387 58.7748C84.4766 59.5894 84.5956 60.4365 84.5829 61.2979C84.5735 61.9269 84.4938 62.5634 84.3384 63.2007C84.3102 63.3214 84.2782 63.4413 84.2439 63.5603Z" fill="#FDD462"/>
<path d="M81.9924 63.09C81.9583 63.2081 81.9206 63.3255 81.882 63.4414C80.4907 67.4766 75.6155 69.9046 70.8075 68.8853C65.9995 67.866 63.003 63.7689 63.9614 59.6419C63.9901 59.5238 64.0204 59.4048 64.0545 59.2868C65.2763 55.0425 70.2937 52.4429 75.2393 53.4915C80.185 54.5399 83.2142 58.8456 81.9924 63.09Z" fill="#F37E00"/>
<path d="M81.8827 63.4411C80.4914 67.4762 75.6162 69.9043 70.8082 68.885C70.7005 68.8622 70.5949 68.8374 70.4893 68.8116C69.4262 68.5519 68.4571 68.1402 67.606 67.6101C66.7549 67.0798 66.0223 66.4323 65.4335 65.7012C65.2837 65.5156 65.1434 65.3252 65.0115 65.1285C64.4161 64.2354 64.019 63.2442 63.8624 62.206C63.8237 61.9575 63.7994 61.705 63.7898 61.4523C63.7651 60.8556 63.8216 60.2489 63.9619 59.6417C65.3534 55.6066 70.2285 53.1774 75.0366 54.1968C75.6447 54.3258 76.2239 54.5044 76.771 54.7264C77.0493 54.8389 77.3201 54.9636 77.5813 55.0987C78.6482 55.6497 79.56 56.3752 80.2771 57.2189C80.4318 57.401 80.5782 57.5893 80.7147 57.7834C81.2461 58.5343 81.6336 59.3605 81.8526 60.2284C82.0656 61.0745 82.1192 61.9587 81.9922 62.8516C81.9655 63.0473 81.9285 63.2446 81.8827 63.4411Z" fill="#F7A219"/>
<path d="M73.0131 65.8193L72.645 67.0981L70.7521 66.6969L71.1036 65.4757C69.781 65.1219 68.5685 64.5347 67.8857 63.9377L69.4765 62.1724C70.2331 62.8094 71.3316 63.348 72.3652 63.5671C73.2647 63.7579 73.6333 63.6649 73.713 63.3884C74.0049 62.3746 68.5742 62.0911 69.4397 59.084C69.8144 57.7822 71.2304 56.9212 73.5083 57.1229L73.8698 55.8672L75.7628 56.2685L75.4079 57.5012C76.3782 57.7925 77.2816 58.2164 77.9407 58.7472L76.4205 60.515C75.6101 59.9155 74.7939 59.5347 73.975 59.3609C73.0486 59.1646 72.6871 59.3324 72.6074 59.6088C72.3289 60.5766 77.7563 60.8716 76.9006 63.8438C76.5424 65.0886 75.1835 65.9494 73.0131 65.8193Z" fill="#F37E00"/>
<path d="M73.0805 65.3824L72.7124 66.6612L70.8195 66.2599L71.171 65.0387C69.8484 64.685 68.6359 64.0978 67.9531 63.5007L69.5439 61.7354C70.3005 62.3726 71.399 62.911 72.4326 63.1301C73.332 63.3209 73.7007 63.2278 73.7804 62.9514C74.0723 61.9376 68.6415 61.6541 69.5071 58.6472C69.8818 57.3454 71.2977 56.4844 73.5757 56.6861L73.9372 55.4304L75.8302 55.8317L75.4753 57.0644C76.4456 57.3557 77.349 57.7796 78.0081 58.3104L76.4878 60.0784C75.6777 59.4789 74.8613 59.098 74.0424 58.9243C73.116 58.728 72.7545 58.8958 72.6748 59.1722C72.3962 60.14 77.8237 60.435 76.968 63.4074C76.6098 64.6516 75.2509 65.5125 73.0805 65.3824Z" fill="#FDD462"/>
<defs>
<clipPath id="clip0_2014_3414">
<rect width="25.5546" height="21.913" fill="white" transform="translate(31.708 48.5716)"/>
</clipPath>
<clipPath id="clip1_2014_3414">
<rect width="25.5546" height="21.913" fill="white" transform="translate(4.45312 81.4414)"/>
</clipPath>
</defs>
</svg>
