<svg width="36" height="36" viewBox="0 0 36 36" fill="none" xmlns="http://www.w3.org/2000/svg">
<path d="M21.75 26.25C21.75 28.725 19.725 30.75 17.25 30.75C14.775 30.75 12.75 28.725 12.75 26.25H15.75C15.75 27.075 16.425 27.75 17.25 27.75C18.075 27.75 18.75 27.075 18.75 26.25C18.75 25.425 18.075 24.75 17.25 24.75H3V21.75H17.25C19.725 21.75 21.75 23.775 21.75 26.25ZM28.5 10.5C28.5 7.605 26.145 5.25 23.25 5.25C20.355 5.25 18 7.605 18 10.5H21C21 9.255 22.005 8.25 23.25 8.25C24.495 8.25 25.5 9.255 25.5 10.5C25.5 11.745 24.495 12.75 23.25 12.75H3V15.75H23.25C26.145 15.75 28.5 13.395 28.5 10.5ZM27.75 17.25H3V20.25H27.75C28.995 20.25 30 21.255 30 22.5C30 23.745 28.995 24.75 27.75 24.75V27.75C30.645 27.75 33 25.395 33 22.5C33 19.605 30.645 17.25 27.75 17.25Z" fill="black"/>
</svg>
