<svg width="33" height="33" viewBox="0 0 33 33" fill="none" xmlns="http://www.w3.org/2000/svg">
<path d="M16.8562 14.8062C13.768 14.0048 12.7748 13.1762 12.7748 11.8857C12.7748 10.4051 14.1489 9.37274 16.4481 9.37274C18.8697 9.37274 19.7676 10.5274 19.8492 12.2253H22.8559C22.7606 9.88892 21.3322 7.7427 18.4888 7.04993V4.0751H14.4074V7.00918C11.7681 7.5797 9.64576 9.29124 9.64576 11.9129C9.64576 15.0507 12.2443 16.6128 16.0399 17.523C19.4411 18.338 20.1213 19.5333 20.1213 20.7966C20.1213 21.7339 19.4547 23.2281 16.4481 23.2281C13.6455 23.2281 12.5436 21.9784 12.3939 20.3755H9.40088C9.56413 23.3504 11.7953 25.0212 14.4074 25.5781V28.5257H18.4888V25.6053C21.1417 25.1027 23.2504 23.5677 23.2504 20.783C23.2504 16.9253 19.9445 15.6077 16.8562 14.8062Z" fill="#3746A3"/>
</svg>
