<svg width="16" height="16" viewBox="0 0 16 16" fill="none" xmlns="http://www.w3.org/2000/svg">
<path d="M10.6665 2V4.66667M5.33317 2V4.66667M2.6665 7.33333H13.3332M2.6665 4.66667C2.6665 4.31304 2.80698 3.97391 3.05703 3.72386C3.30708 3.47381 3.64622 3.33333 3.99984 3.33333H11.9998C12.3535 3.33333 12.6926 3.47381 12.9426 3.72386C13.1927 3.97391 13.3332 4.31304 13.3332 4.66667V12.6667C13.3332 13.0203 13.1927 13.3594 12.9426 13.6095C12.6926 13.8595 12.3535 14 11.9998 14H3.99984C3.64622 14 3.30708 13.8595 3.05703 13.6095C2.80698 13.3594 2.6665 13.0203 2.6665 12.6667V4.66667ZM7.33317 10.6667C7.33317 10.8435 7.40341 11.013 7.52843 11.1381C7.65346 11.2631 7.82303 11.3333 7.99984 11.3333C8.17665 11.3333 8.34622 11.2631 8.47124 11.1381C8.59627 11.013 8.6665 10.8435 8.6665 10.6667C8.6665 10.4899 8.59627 10.3203 8.47124 10.1953C8.34622 10.0702 8.17665 10 7.99984 10C7.82303 10 7.65346 10.0702 7.52843 10.1953C7.40341 10.3203 7.33317 10.4899 7.33317 10.6667Z" stroke="#ACB5BB" stroke-width="1.3" stroke-linecap="round" stroke-linejoin="round"/>
</svg>
