<svg width="28" height="24" viewBox="0 0 28 24" fill="none" xmlns="http://www.w3.org/2000/svg">
<path d="M8.02679 6V6.75C8.26044 6.75 8.48074 6.64111 8.62263 6.45549L8.02679 6ZM9.63931 3.8906L9.04347 3.43511V3.43511L9.63931 3.8906ZM17.8809 3.8906L18.4768 3.43511L17.8809 3.8906ZM19.4935 6L18.8976 6.45549C19.0395 6.64111 19.2598 6.75 19.4935 6.75V6ZM17.2001 13.5H16.4501C16.4501 14.6495 15.3455 15.75 13.7601 15.75V16.5V17.25C15.9745 17.25 17.9501 15.6642 17.9501 13.5H17.2001ZM13.7601 16.5V15.75C12.1748 15.75 11.0701 14.6495 11.0701 13.5H10.3201H9.57012C9.57012 15.6642 11.5457 17.25 13.7601 17.25V16.5ZM10.3201 13.5H11.0701C11.0701 12.3505 12.1748 11.25 13.7601 11.25V10.5V9.75C11.5457 9.75 9.57012 11.3358 9.57012 13.5H10.3201ZM13.7601 10.5V11.25C15.3455 11.25 16.4501 12.3505 16.4501 13.5H17.2001H17.9501C17.9501 11.3358 15.9745 9.75 13.7601 9.75V10.5ZM8.02679 6L8.62263 6.45549L10.2352 4.34609L9.63931 3.8906L9.04347 3.43511L7.43095 5.54451L8.02679 6ZM11.5475 3V3.75H15.9728V3V2.25H11.5475V3ZM17.8809 3.8906L17.2851 4.34609L18.8976 6.45549L19.4935 6L20.0893 5.54451L18.4768 3.43511L17.8809 3.8906ZM15.9728 3V3.75C16.5314 3.75 17.0165 3.99469 17.2851 4.34609L17.8809 3.8906L18.4768 3.43511C17.8947 2.67371 16.9477 2.25 15.9728 2.25V3ZM9.63931 3.8906L10.2352 4.34609C10.5038 3.99469 10.9888 3.75 11.5475 3.75V3V2.25C10.5726 2.25 9.62551 2.67371 9.04347 3.43511L9.63931 3.8906ZM25.2268 10H24.4768V17H25.2268H25.9768V10H25.2268ZM20.6401 21V20.25H6.88012V21V21.75H20.6401V21ZM2.29346 17H3.04346V10H2.29346H1.54346V17H2.29346ZM6.88012 21V20.25C4.6615 20.25 3.04346 18.7018 3.04346 17H2.29346H1.54346C1.54346 19.7165 4.03245 21.75 6.88012 21.75V21ZM25.2268 17H24.4768C24.4768 18.7018 22.8587 20.25 20.6401 20.25V21V21.75C23.4878 21.75 25.9768 19.7165 25.9768 17H25.2268ZM20.6401 6V6.75C22.8587 6.75 24.4768 8.29818 24.4768 10H25.2268H25.9768C25.9768 7.28354 23.4878 5.25 20.6401 5.25V6ZM6.88012 6V5.25C4.03245 5.25 1.54346 7.28354 1.54346 10H2.29346H3.04346C3.04346 8.29818 4.6615 6.75 6.88012 6.75V6ZM6.88012 6V6.75H8.02679V6V5.25H6.88012V6ZM20.6401 6V5.25H19.4935V6V6.75H20.6401V6Z" fill="#000E08"/>
<ellipse cx="13.7599" cy="6" rx="1.14667" ry="1" fill="#000E08"/>
</svg>
