<svg width="30" height="30" viewBox="0 0 30 30" fill="none" xmlns="http://www.w3.org/2000/svg">
<path d="M26.2099 23.06C26.1978 23.4915 26.0991 23.9161 25.9196 24.3086C25.7402 24.7012 25.4837 25.0537 25.1654 25.3452C24.8471 25.6367 24.4734 25.8612 24.0667 26.0055C23.6599 26.1498 23.2282 26.2108 22.7974 26.185C20.1061 26.2 17.4149 26.185 14.7236 26.185C14.5579 26.185 14.3989 26.1192 14.2817 26.002C14.1645 25.8847 14.0986 25.7258 14.0986 25.56C14.0986 25.3943 14.1645 25.2353 14.2817 25.1181C14.3989 25.0009 14.5579 24.935 14.7236 24.935C17.4736 24.935 20.2236 24.975 22.9736 24.935C24.3574 24.915 24.9599 23.875 24.9599 22.6375V7.05877C24.9695 6.66535 24.8588 6.27836 24.6426 5.94955C24.4264 5.62074 24.1149 5.36578 23.7499 5.21877C23.3183 5.10099 22.8693 5.06078 22.4236 5.10002H14.7236C14.5579 5.10002 14.3989 5.03417 14.2817 4.91696C14.1645 4.79975 14.0986 4.64078 14.0986 4.47502C14.0986 4.30926 14.1645 4.15029 14.2817 4.03308C14.3989 3.91587 14.5579 3.85002 14.7236 3.85002C17.5036 3.85002 20.3049 3.74377 23.0824 3.85002C23.5077 3.86077 23.9267 3.95602 24.3149 4.1302C24.7031 4.30438 25.0527 4.55402 25.3435 4.86461C25.6343 5.17519 25.8605 5.5405 26.0088 5.93929C26.1571 6.33809 26.2246 6.76239 26.2074 7.18752L26.2099 23.06Z" fill="#FF0000"/>
<path d="M3.97022 14.5787C3.86461 14.6811 3.80278 14.8205 3.79772 14.9675C3.79772 14.9862 3.79772 15.0025 3.79022 15.0212C3.78272 15.04 3.79022 15.055 3.79772 15.0725C3.80272 15.2199 3.86453 15.3596 3.97022 15.4625L8.55647 20.0487C8.67434 20.1626 8.83222 20.2256 8.99609 20.2242C9.15996 20.2227 9.31672 20.157 9.4326 20.0411C9.54848 19.9252 9.61421 19.7685 9.61564 19.6046C9.61706 19.4407 9.55406 19.2829 9.44022 19.165L5.92147 15.645H19.349C19.5147 15.645 19.6737 15.5791 19.7909 15.4619C19.9081 15.3447 19.974 15.1858 19.974 15.02C19.974 14.8542 19.9081 14.6953 19.7909 14.578C19.6737 14.4608 19.5147 14.395 19.349 14.395H5.92147L9.44022 10.875C9.55406 10.7571 9.61706 10.5992 9.61564 10.4354C9.61421 10.2715 9.54848 10.1147 9.4326 9.99885C9.31672 9.88297 9.15996 9.81724 8.99609 9.81582C8.83222 9.8144 8.67434 9.87739 8.55647 9.99124L3.97022 14.5787Z" fill="#FF0000"/>
</svg>
