<svg width="32" height="24" viewBox="0 0 32 24" fill="none" xmlns="http://www.w3.org/2000/svg">
<path d="M26.2002 1V0V1ZM29.3623 1.32715L29.8164 0.436199L29.8163 0.436142L29.3623 1.32715ZM30.6729 2.6377L31.5639 2.1837L31.5638 2.18359L30.6729 2.6377ZM31 5.7998H32H31ZM31 12.1055H32H31ZM30.6729 15.2676L31.5638 15.7217L31.5639 15.7216L30.6729 15.2676ZM29.3623 16.5781L29.8163 17.4691L29.8164 17.4691L29.3623 16.5781ZM26.2002 16.9053V17.9053V16.9053ZM4.35547 19.6689L4.97201 20.4563L4.97253 20.4559L4.35547 19.6689ZM3.62793 19.3145H2.62793V19.3145L3.62793 19.3145ZM4 5.7998H3H4ZM4.32715 2.6377L3.4362 2.18359L3.43614 2.1837L4.32715 2.6377ZM5.6377 1.32715L5.1837 0.436142L5.18359 0.436198L5.6377 1.32715ZM8.7998 1V0V1ZM7.60814 17.1184L6.99108 16.3314L7.60814 17.1184ZM26.2002 1V2C27.0566 2 27.639 2.00082 28.0891 2.03763C28.5276 2.07349 28.7519 2.13845 28.9083 2.21815L29.3623 1.32715L29.8163 0.436142C29.331 0.188875 28.8143 0.0902614 28.2521 0.0442888C27.7016 -0.000732541 27.0238 0 26.2002 0V1ZM29.3623 1.32715L28.9082 2.2181C29.2844 2.40981 29.5902 2.71565 29.7819 3.0918L30.6729 2.6377L31.5638 2.18359C31.1804 1.4313 30.5687 0.819631 29.8164 0.436199L29.3623 1.32715ZM30.6729 2.6377L29.7818 3.09169C29.8615 3.24811 29.9265 3.47241 29.9624 3.91089C29.9992 4.361 30 4.94335 30 5.7998H31H32C32 4.97623 32.0007 4.29838 31.9557 3.74787C31.9097 3.18573 31.8111 2.66899 31.5639 2.1837L30.6729 2.6377ZM31 5.7998H30V12.1055H31H32V5.7998H31ZM31 12.1055H30C30 12.9619 29.9992 13.5442 29.9624 13.9944C29.9265 14.4329 29.8615 14.6572 29.7818 14.8136L30.6729 15.2676L31.5639 15.7216C31.8111 15.2363 31.9097 14.7195 31.9557 14.1574C32.0007 13.6069 32 12.929 32 12.1055H31ZM30.6729 15.2676L29.7819 14.8134C29.5902 15.1896 29.2843 15.4955 28.9082 15.6872L29.3623 16.5781L29.8164 17.4691C30.5687 17.0856 31.1804 16.4739 31.5638 15.7217L30.6729 15.2676ZM29.3623 16.5781L28.9083 15.6871C28.7519 15.7668 28.5276 15.8318 28.0891 15.8676C27.639 15.9045 27.0566 15.9053 26.2002 15.9053V16.9053V17.9053C27.0238 17.9053 27.7016 17.906 28.2521 17.861C28.8143 17.815 29.331 17.7164 29.8163 17.4691L29.3623 16.5781ZM26.2002 16.9053V15.9053H8.2252V16.9053V17.9053H26.2002V16.9053ZM7.60814 17.1184L6.99108 16.3314L3.73841 18.882L4.35547 19.6689L4.97253 20.4559L8.2252 17.9053L7.60814 17.1184ZM4.35547 19.6689L3.73893 18.8816C4.10033 18.5986 4.62793 18.8564 4.62793 19.3144L3.62793 19.3145L2.62793 19.3145C2.62794 20.5229 4.01998 21.2018 4.97201 20.4563L4.35547 19.6689ZM3.62793 19.3145H4.62793V9.62256H3.62793H2.62793V19.3145H3.62793ZM4 9.25049H5V5.7998H4H3V9.25049H4ZM4 5.7998H5C5 4.94335 5.00082 4.361 5.03763 3.91089C5.07349 3.47241 5.13845 3.24811 5.21815 3.09169L4.32715 2.6377L3.43614 2.1837C3.18887 2.66899 3.09026 3.18573 3.04429 3.74787C2.99927 4.29838 3 4.97623 3 5.7998H4ZM4.32715 2.6377L5.2181 3.0918C5.40981 2.71565 5.71565 2.40981 6.0918 2.2181L5.6377 1.32715L5.18359 0.436198C4.4313 0.819631 3.81963 1.4313 3.4362 2.18359L4.32715 2.6377ZM5.6377 1.32715L6.09169 2.21815C6.24811 2.13845 6.47241 2.07349 6.91089 2.03763C7.361 2.00082 7.94335 2 8.7998 2V1V0C7.97623 0 7.29838 -0.000732541 6.74787 0.0442888C6.18573 0.0902614 5.66899 0.188875 5.1837 0.436142L5.6377 1.32715ZM8.7998 1V2H26.2002V1V0H8.7998V1ZM3.81396 9.43652V10.4365C4.46899 10.4365 5 9.90552 5 9.25049H4H3C3 8.80095 3.36442 8.43652 3.81396 8.43652V9.43652ZM3.62793 9.62256H4.62793C4.62793 10.0721 4.2635 10.4365 3.81396 10.4365V9.43652V8.43652C3.15894 8.43652 2.62793 8.96753 2.62793 9.62256H3.62793ZM8.2252 16.9053V15.9053C7.77774 15.9053 7.3432 16.0553 6.99108 16.3314L7.60814 17.1184L8.2252 17.9053H8.2252V16.9053Z" fill="currentColor"/>
<path d="M9.06982 5.89539L21.7675 5.89539" stroke="currentColor" stroke-width="2" stroke-linecap="round" stroke-linejoin="round"/>
<path d="M9.06982 9.5177L17.2326 9.5177" stroke="currentColor" stroke-width="2" stroke-linecap="round" stroke-linejoin="round"/>
</svg>
