<svg width="15" height="12" viewBox="0 0 15 12" fill="none" xmlns="http://www.w3.org/2000/svg">
<path fill-rule="evenodd" clip-rule="evenodd" d="M12.8637 0.75C12.7019 0.3 12.2165 0 11.731 0H2.83163C2.26531 0 1.86079 0.3 1.69898 0.75L0 5.25V11.25C0 11.7 0.323615 12 0.809038 12H1.61808C2.1035 12 2.42711 11.7 2.42711 11.25V10.5H12.1356V11.25C12.1356 11.7 12.4592 12 12.9446 12H13.7536C14.2391 12 14.5627 11.7 14.5627 11.25V5.25L12.8637 0.75ZM2.83238 8.25C2.18515 8.25 1.61882 7.725 1.61882 7.125C1.61882 6.525 2.18515 6 2.83238 6C3.47961 6 4.04593 6.525 4.04593 7.125C4.04593 7.725 3.47961 8.25 2.83238 8.25ZM11.7318 8.25C11.0846 8.25 10.5182 7.725 10.5182 7.125C10.5182 6.525 11.0846 6 11.7318 6C12.379 6 12.9453 6.525 12.9453 7.125C12.9453 7.725 12.379 8.25 11.7318 8.25ZM1.61882 4.5L2.83238 1.125H11.7318L12.9453 4.5H1.61882Z" fill="white"/>
</svg>
