<svg width="36" height="36" viewBox="0 0 36 36" fill="none" xmlns="http://www.w3.org/2000/svg">
<path d="M31.5 21C31.5 20.175 30.825 19.5 30 19.5H27V22.5H30C30.825 22.5 31.5 21.825 31.5 21Z" fill="black"/>
<path d="M30 25.5H27V28.5H30C30.825 28.5 31.5 27.825 31.5 27C31.5 26.175 30.825 25.5 30 25.5Z" fill="black"/>
<path d="M18 21H15V27H18C18 28.65 19.35 30 21 30H25.5V18H21C19.35 18 18 19.35 18 21Z" fill="black"/>
<path d="M7.5 19.5C7.5 17.85 8.85 16.5 10.5 16.5H12.75C15.645 16.5 18 14.145 18 11.25C18 8.355 15.645 6 12.75 6H7.5C6.675 6 6 6.675 6 7.5C6 8.325 6.675 9 7.5 9H12.75C13.995 9 15 10.005 15 11.25C15 12.495 13.995 13.5 12.75 13.5H10.5C7.185 13.5 4.5 16.185 4.5 19.5C4.5 22.815 7.185 25.5 10.5 25.5H13.5V22.5H10.5C8.85 22.5 7.5 21.15 7.5 19.5Z" fill="black"/>
</svg>
