<svg width="28" height="24" viewBox="0 0 28 24" fill="none" xmlns="http://www.w3.org/2000/svg">
<path d="M8.02661 18L8.02661 10C8.02661 7.79086 10.0801 6 12.6133 6L19.4933 6M8.02661 18C8.02661 20.2091 10.0801 22 12.6133 22H15.3001C16.5165 22 17.6832 21.5786 18.5433 20.8284L22.7365 17.1716C23.5967 16.4214 24.0799 15.404 24.0799 14.3431V10C24.0799 7.79086 22.0264 6 19.4933 6M8.02661 18C5.49346 18 3.43994 16.2091 3.43994 14L3.43994 6C3.43994 3.79086 5.49346 2 8.02661 2L14.9066 2C17.4398 2 19.4933 3.79086 19.4933 6M17.1999 22V20C17.1999 17.7909 19.2535 16 21.7866 16H24.0799" stroke="#797C7B" stroke-width="1.5" stroke-linejoin="round"/>
</svg>
