<svg width="36" height="36" viewBox="0 0 36 36" fill="none" xmlns="http://www.w3.org/2000/svg">
<path d="M12.7051 14.5L13.0068 14.5029C13.0291 14.504 13.0426 14.5051 13.0498 14.5059C13.0701 14.5108 13.0896 14.5184 13.1074 14.5293C13.0956 14.5221 13.1003 14.5226 13.1396 14.5586C13.1859 14.6008 13.2457 14.6597 13.3555 14.7695L16.7305 18.1445C16.9044 18.3184 17.1022 18.5253 17.3477 18.6758C17.5445 18.7964 17.7589 18.8856 17.9834 18.9395C18.2632 19.0066 18.5491 19 18.7949 19H26.6172C26.4942 19.1374 26.3467 19.2523 26.1807 19.3369C25.8598 19.5002 25.4393 19.5 24.5996 19.5H11.4004C10.5607 19.5 10.1402 19.5002 9.81934 19.3369C9.53709 19.1931 9.3069 18.9629 9.16309 18.6807C8.99981 18.3598 9 17.9393 9 17.0996V14.5H12.7051ZM21.25 8.15039C21.25 8.422 21.25 8.65591 21.2656 8.84766C21.2818 9.04513 21.3169 9.24166 21.4131 9.43066C21.5569 9.71291 21.7871 9.9431 22.0693 10.0869C22.2583 10.1831 22.4549 10.2182 22.6523 10.2344C22.8441 10.25 23.078 10.25 23.3496 10.25H27V17H18.7949C18.6397 17 18.5557 16.9999 18.4932 16.9971C18.4709 16.996 18.4574 16.9949 18.4502 16.9941C18.4299 16.9892 18.4104 16.9816 18.3926 16.9707C18.4044 16.9779 18.3997 16.9774 18.3604 16.9414C18.3141 16.8992 18.2543 16.8403 18.1445 16.7305L14.7695 13.3555C14.5956 13.1816 14.3978 12.9747 14.1523 12.8242C13.9555 12.7036 13.7411 12.6144 13.5166 12.5605C13.3766 12.5269 13.2349 12.5117 13.0977 12.5049L12.7051 12.5H9V6.90039C9 6.06068 8.99981 5.64015 9.16309 5.31934C9.3069 5.03709 9.53709 4.8069 9.81934 4.66309C10.1402 4.49981 10.5607 4.5 11.4004 4.5H21.25V8.15039ZM22.3193 4.52734C22.4214 4.55184 22.5189 4.59264 22.6084 4.64746C22.7093 4.7093 22.7959 4.79588 22.9688 4.96875L26.5312 8.53125C26.7041 8.70413 26.7907 8.79074 26.8525 8.8916C26.9074 8.98106 26.9482 9.07864 26.9727 9.18066C26.978 9.20312 26.9809 9.22614 26.9844 9.25H23.3496C23.0619 9.25 22.8759 9.24981 22.7344 9.23828C22.599 9.22722 22.5483 9.20791 22.5234 9.19531C22.4294 9.14738 22.3526 9.07064 22.3047 8.97656C22.2921 8.95175 22.2728 8.90097 22.2617 8.76562C22.2502 8.62408 22.25 8.43812 22.25 8.15039V4.51465C22.2739 4.51814 22.2968 4.52194 22.3193 4.52734Z" fill="#848484"/>
<path d="M4.5 15.9C4.5 15.0599 4.5 14.6399 4.66349 14.319C4.8073 14.0368 5.03677 13.8073 5.31901 13.6635C5.63988 13.5 6.05992 13.5 6.9 13.5H12.7047C12.9982 13.5 13.145 13.5 13.2831 13.5332C13.4055 13.5626 13.5226 13.611 13.6299 13.6768C13.751 13.751 13.8548 13.8548 14.0624 14.0624L17.4376 17.4376C17.6452 17.6452 17.749 17.749 17.8701 17.8232C17.9774 17.889 18.0945 17.9374 18.2169 17.9668C18.355 18 18.5018 18 18.7953 18H29.1C29.9401 18 30.3601 18 30.681 18.1635C30.9632 18.3073 31.1927 18.5368 31.3365 18.819C31.5 19.1399 31.5 19.5599 31.5 20.4V30.6C31.5 31.4401 31.5 31.8601 31.3365 32.181C31.1927 32.4632 30.9632 32.6927 30.681 32.8365C30.3601 33 29.9401 33 29.1 33H6.9C6.05992 33 5.63988 33 5.31901 32.8365C5.03677 32.6927 4.8073 32.4632 4.66349 32.181C4.5 31.8601 4.5 31.4401 4.5 30.6V15.9Z" fill="#222222"/>
</svg>
