<svg width="20" height="20" viewBox="0 0 20 20" fill="none" xmlns="http://www.w3.org/2000/svg">
<path d="M7.49984 14.1668H5.83317C4.7281 14.1668 3.66829 13.7278 2.88689 12.9464C2.10549 12.165 1.6665 11.1052 1.6665 10.0002C1.6665 8.89509 2.10549 7.83529 2.88689 7.05388C3.66829 6.27248 4.7281 5.8335 5.83317 5.8335H7.49984" stroke="black" stroke-opacity="0.4" stroke-width="3" stroke-linecap="round" stroke-linejoin="round"/>
<path d="M12.5 5.8335H14.1667C15.2717 5.8335 16.3315 6.27248 17.1129 7.05388C17.8943 7.83529 18.3333 8.89509 18.3333 10.0002C18.3333 11.1052 17.8943 12.165 17.1129 12.9464C16.3315 13.7278 15.2717 14.1668 14.1667 14.1668H12.5" stroke="black" stroke-opacity="0.4" stroke-width="3" stroke-linecap="round" stroke-linejoin="round"/>
<path d="M6.6665 10H13.3332" stroke="black" stroke-opacity="0.4" stroke-width="3" stroke-linecap="round" stroke-linejoin="round"/>
</svg>
