<svg width="20" height="20" viewBox="0 0 20 20" fill="none" xmlns="http://www.w3.org/2000/svg">
<path d="M5 3.3335H11.6667C12.5507 3.3335 13.3986 3.68469 14.0237 4.30981C14.6488 4.93493 15 5.78277 15 6.66683C15 7.55088 14.6488 8.39873 14.0237 9.02385C13.3986 9.64897 12.5507 10.0002 11.6667 10.0002H5V3.3335Z" stroke="black" stroke-opacity="0.4" stroke-width="3" stroke-linecap="round" stroke-linejoin="round"/>
<path d="M5 10H12.5C13.3841 10 14.2319 10.3512 14.857 10.9763C15.4821 11.6014 15.8333 12.4493 15.8333 13.3333C15.8333 14.2174 15.4821 15.0652 14.857 15.6904C14.2319 16.3155 13.3841 16.6667 12.5 16.6667H5V10Z" stroke="black" stroke-opacity="0.4" stroke-width="3" stroke-linecap="round" stroke-linejoin="round"/>
</svg>
