<svg width="20" height="20" viewBox="0 0 20 20" fill="none" xmlns="http://www.w3.org/2000/svg">
<path d="M13.3335 3.33329H12.5002V1.66663H10.8335V3.33329H9.16683V1.66663H7.50016V3.33329H6.66683C4.82516 3.33329 3.3335 4.82496 3.3335 6.66663V15C3.3335 16.8416 4.82516 18.3333 6.66683 18.3333H13.3335C15.1752 18.3333 16.6668 16.8416 16.6668 15V6.66663C16.6668 4.82496 15.1752 3.33329 13.3335 3.33329ZM15.0002 15C15.0002 15.9166 14.2502 16.6666 13.3335 16.6666H6.66683C5.75016 16.6666 5.00016 15.9166 5.00016 15V6.66663C5.00016 5.74996 5.75016 4.99996 6.66683 4.99996H13.3335C14.2502 4.99996 15.0002 5.74996 15.0002 6.66663V15Z" fill="white"/>
<path d="M7.91683 12.95C7.91683 14.0833 8.85016 15 10.0002 15C11.1502 15 12.0835 14.0833 12.0835 12.95C12.0835 12.0416 11.7085 11.775 10.0002 9.79163C8.27516 11.7916 7.91683 12.05 7.91683 12.95Z" fill="white"/>
<path d="M13.3335 6.66663H6.66683V8.33329H13.3335V6.66663Z" fill="white"/>
</svg>
