<svg width="106" height="93" viewBox="0 0 106 93" fill="none" xmlns="http://www.w3.org/2000/svg">
<ellipse cx="52.7064" cy="81.1944" rx="52.7064" ry="11.3636" fill="#F2F1F9"/>
<path d="M23.5059 8.53484L22.5126 8.05093C22.5129 8.05143 22.5132 8.05194 22.5138 8.05244C22.2229 7.87252 21.8269 7.86873 21.3894 8.08656L7.0657 15.2144C6.17415 15.6581 5.45117 16.8486 5.45117 17.8732V31.5229C5.45117 32.1001 5.68073 32.5016 6.04046 32.6628H6.04016L7.21493 33.2263C7.21493 33.2263 6.96866 32.8731 6.78073 32.6861C6.87337 32.659 6.96836 32.6234 7.0657 32.5749L21.3894 25.4471C22.2813 25.0033 23.004 23.8129 23.004 22.7882V9.13853C23.004 8.86436 22.9509 8.63137 22.858 8.44311C23.1936 8.67382 23.5059 8.53484 23.5059 8.53484Z" fill="#E0CBB0"/>
<path d="M5.44922 17.8731V31.5227C5.44922 32.0999 5.67878 32.5014 6.0385 32.6626H6.03821L7.21297 33.2262C7.21297 33.2262 6.9667 32.8729 6.77878 32.6859C6.87142 32.6589 6.96641 32.6232 7.06374 32.5747L15.4427 28.405V22.6056L5.46241 17.6391C5.4545 17.7179 5.44922 17.796 5.44922 17.8731Z" fill="#C6AE95"/>
<path d="M23.0024 9.1383C23.0024 8.86413 22.9493 8.63114 22.8563 8.44288C23.1923 8.67334 23.5046 8.53461 23.5046 8.53461L22.5113 8.0507C22.5116 8.0512 22.5119 8.05171 22.5125 8.05221C22.2216 7.87229 21.8255 7.8685 21.3881 8.08633L7.06439 15.2141C7.00223 15.245 6.94125 15.2803 6.88086 15.3183L18.1324 20.9173L23.0026 17.4753V9.1383H23.0024Z" fill="#F2DCC4"/>
<path d="M22.451 25.97L8.12722 33.0978C7.23567 33.5415 6.5127 33.0705 6.5127 32.0458V18.3962C6.5127 17.3715 7.23537 16.181 8.12722 15.7373L22.451 8.60922C23.3425 8.16549 24.0655 8.63651 24.0655 9.6612V23.3109C24.0655 24.3358 23.3425 25.5263 22.451 25.97Z" fill="#F7EED7"/>
<path d="M22.0378 25.8254L8.68508 32.47C7.75366 32.9335 6.99609 32.5613 6.99609 31.6399V18.4335C6.99609 17.5124 7.75366 16.3859 8.68508 15.9224L22.0378 9.27778C22.9692 8.81433 23.7268 9.18681 23.7268 10.1079V23.3143C23.7268 24.2357 22.9692 25.3619 22.0378 25.8254ZM8.68508 16.07C7.83605 16.4925 7.14503 17.5197 7.14503 18.3594V31.5659C7.14503 32.4056 7.83605 32.7452 8.68508 32.3227L22.0378 25.678C22.8869 25.2555 23.5779 24.2283 23.5779 23.3884V10.1822C23.5779 9.34221 22.8869 9.00284 22.0378 9.42535L8.68508 16.07Z" fill="#C6AD89"/>
<g opacity="0.6">
<path opacity="0.6" d="M7.63296 32.4327L23.1593 9.35016C22.8781 9.19349 22.4797 9.20536 22.0373 9.42546L8.68459 16.0701C7.83555 16.4926 7.14453 17.5198 7.14453 18.3596V31.566C7.14453 32.0039 7.33334 32.3039 7.63296 32.4327Z" fill="#F9ECC7"/>
</g>
<path d="M18.774 22.5938C20.6823 19.7802 20.7016 16.7296 18.817 15.78C16.9325 14.8304 13.8578 16.3414 11.9494 19.1549C10.0411 21.9684 10.0219 25.019 11.9064 25.9686C13.791 26.9182 16.8657 25.4073 18.774 22.5938Z" fill="#CEBBA1"/>
<path d="M15.2257 21.9176L12.5625 24.761L14.8557 25.9022C15.0217 25.8365 15.1902 25.7617 15.3606 25.6768C16.4102 25.1544 17.3812 24.3408 18.1754 23.3856L15.2257 21.9176Z" fill="#E0CBB0"/>
<path opacity="0.4" d="M15.3624 16.071C15.1014 16.2009 14.8455 16.3492 14.5957 16.5127V18.653L19.5879 21.1373C19.9887 20.2395 20.2185 19.3181 20.2185 18.4574C20.2185 15.8046 18.0443 14.7362 15.3624 16.071Z" fill="#C6AD89"/>
<path opacity="0.4" d="M20.1966 18.037C19.9899 15.8411 18.1464 14.9256 15.8262 15.8621L20.1966 18.037Z" fill="#C6AD89"/>
<path d="M14.0248 24.9483C16.4564 23.7382 18.4277 20.8076 18.4277 18.4025C18.4277 16.7809 17.5309 15.8136 16.2016 15.7254C15.9284 15.8141 15.6478 15.9278 15.3611 16.0706C12.6791 17.4051 10.5049 20.6376 10.5049 23.2901C10.5049 24.1288 10.7227 24.8088 11.105 25.3049C11.8822 25.6 12.9045 25.506 14.0248 24.9483Z" fill="#F2DDC2"/>
<path d="M20.0631 24.3609L10.6591 29.0408C10.0033 29.3673 9.46973 29.105 9.46973 28.4563V19.1551C9.46973 18.5064 10.0033 17.7129 10.6591 17.3867L20.0631 12.707C20.7189 12.3805 21.2525 12.6428 21.2525 13.2915V22.5925C21.2525 23.2412 20.7189 24.0344 20.0631 24.3609ZM10.6591 17.4903C10.0611 17.788 9.57439 18.5112 9.57439 19.1028V28.4038C9.57439 28.9953 10.0611 29.2344 10.6591 28.9367L20.0631 24.257C20.6612 23.9593 21.1478 23.2359 21.1478 22.6446V13.3436C21.1478 12.752 20.6612 12.5129 20.0631 12.8106L10.6591 17.4903Z" fill="#C6AD89"/>
<path d="M14.6555 20.6192C14.6555 20.9386 14.3937 21.3277 14.0709 21.4884C13.7478 21.6492 13.4863 21.5205 13.4863 21.2011C13.4863 20.8817 13.7481 20.4926 14.0709 20.3319C14.3937 20.1711 14.6555 20.2998 14.6555 20.6192Z" fill="#5D6D89"/>
<path opacity="0.5" d="M14.501 20.3061L13.6777 21.5301C13.7818 21.5723 13.9187 21.563 14.0709 21.4872C14.394 21.3265 14.6555 20.9373 14.6555 20.6179C14.6555 20.4678 14.596 20.3617 14.501 20.3061Z" fill="#5D6D89"/>
<path d="M14.5855 20.6531C14.5855 20.9346 14.3548 21.2775 14.0701 21.4192C13.7854 21.5608 13.5547 21.4475 13.5547 21.166C13.5547 20.8845 13.7854 20.5416 14.0701 20.3999C14.3548 20.2584 14.5855 20.3716 14.5855 20.6531Z" fill="#A6B4C9"/>
<path d="M13.6699 21.4265C13.6931 21.4434 13.7192 21.4563 13.7482 21.4649L14.47 20.3927C14.4468 20.3758 14.4207 20.3629 14.3917 20.3543L13.6699 21.4265Z" fill="#5D6D89"/>
<path d="M12.5844 21.6495C12.5844 22.0177 12.2827 22.4662 11.9103 22.6515C11.538 22.8367 11.2363 22.6883 11.2363 22.3202C11.2363 21.952 11.538 21.5035 11.9103 21.3182C12.2827 21.133 12.5844 21.2813 12.5844 21.6495Z" fill="#494238"/>
<path d="M16.9047 19.4994C16.9047 19.8676 16.603 20.3161 16.2307 20.5014C15.8583 20.6866 15.5566 20.5383 15.5566 20.1701C15.5566 19.8019 15.8583 19.3534 16.2307 19.1681C16.603 18.9832 16.9047 19.1312 16.9047 19.4994Z" fill="#494238"/>
<path d="M15.3613 25.4903C13.5466 26.3934 11.9564 26.236 11.0684 25.2553C11.8834 26.3712 13.4997 26.6037 15.3613 25.677C17.2233 24.7504 18.8396 22.9092 19.6546 20.9824C18.7663 22.8473 17.1761 24.5874 15.3613 25.4903Z" fill="white"/>
<path opacity="0.4" d="M10.6515 24.2605C10.6515 21.3219 13.0602 17.7409 16.0313 16.2624C16.3435 16.107 16.649 15.9831 16.9469 15.8854C16.7182 15.7982 16.4693 15.7433 16.2016 15.7254C15.9284 15.8141 15.6478 15.9278 15.3611 16.0706C12.6791 17.4051 10.5049 20.6376 10.5049 23.2901C10.5049 23.701 10.5579 24.0732 10.6562 24.4048C10.6547 24.3565 10.6515 24.3098 10.6515 24.2605Z" fill="#C6AD89"/>
<path d="M13.8452 24.8705C13.0202 25.2811 12.2447 25.4588 11.5684 25.43C12.2699 25.5485 13.1149 25.4014 14.0246 24.9488C15.9666 23.9825 17.6137 21.9188 18.1988 19.9015C17.4589 21.9203 15.7886 23.9034 13.8452 24.8705Z" fill="#FFFAEE"/>
<path d="M12.0992 21.2514C12.2628 21.2916 12.369 21.4319 12.369 21.6497C12.369 22.0179 12.0673 22.4664 11.695 22.6516C11.6293 22.6842 11.566 22.7062 11.5059 22.7186C11.6184 22.7464 11.7583 22.7272 11.9101 22.6516C12.2825 22.4664 12.5842 22.0179 12.5842 21.6497C12.5842 21.3464 12.3795 21.1928 12.0992 21.2514Z" fill="#CEBBA1"/>
<path d="M16.4111 19.1034C16.5694 19.1466 16.6717 19.2855 16.6717 19.4993C16.6717 19.8675 16.37 20.316 15.9977 20.5013C15.9352 20.5324 15.8748 20.5533 15.8174 20.5662C15.9314 20.5973 16.0748 20.5789 16.2308 20.5013C16.6031 20.316 16.9048 19.8675 16.9048 19.4993C16.9048 19.1931 16.6957 19.0397 16.4111 19.1034Z" fill="#CEBBA1"/>
<path d="M15.7459 48.8192L7.37988 48.8192C8.07212 53.2898 7.90529 52.1984 7.93019 52.4227C8.05936 53.5885 9.30783 54.8119 11.5112 54.8119C13.7146 54.8119 14.7449 53.6497 15.1203 52.6825C15.1776 52.5353 15.2333 52.1308 15.7459 48.8192Z" fill="#31343F"/>
<path d="M12.3482 56.3531C11.9669 56.5406 11.3475 56.5401 10.9643 56.3521C10.5812 56.1638 10.5793 55.8592 10.9606 55.6714C11.3419 55.4839 11.9613 55.4844 12.3444 55.6727C12.7276 55.8608 12.7295 56.1656 12.3482 56.3531Z" fill="#31343F"/>
<path d="M12.6306 55.9922L10.6762 55.9922L10.4727 53.0824L12.8342 53.0824L12.6306 55.9922Z" fill="#31343F"/>
<path d="M17.3944 65.6519C16.6533 65.6519 15.9054 65.4843 15.1966 65.1479C12.47 63.8542 10.9582 60.5139 11.0488 55.9832L12.2583 56.0007C12.1768 60.0788 13.4956 63.1624 15.7855 64.249C16.8684 64.7626 18.072 64.7393 19.0883 64.1841C20.7834 63.2585 21.6509 61.1445 21.4081 58.5289C21.2671 57.0079 20.8426 55.5759 20.4323 54.1913C19.3768 50.6301 18.3799 47.2669 23.4136 44.5257L24.0656 45.3928C19.7659 47.7343 20.5375 50.337 21.6051 53.9397C22.0278 55.3656 22.4648 56.8405 22.6142 58.4481C22.8925 61.4486 21.8187 63.9167 19.7416 65.0507C19.008 65.4509 18.2053 65.6517 17.3944 65.6519Z" fill="#31343F"/>
<path d="M11.8406 54.7656C11.4802 54.7971 11.1879 54.8066 10.7842 54.7354C10.7888 54.8016 10.853 55.9513 10.8919 56.0085C11.0319 56.2148 11.553 56.2916 11.7609 56.1629C11.9041 56.0927 11.8406 54.7656 11.8406 54.7656Z" fill="#3F434F"/>
<path d="M13.4085 50.3638L8.12207 50.3638C8.55939 53.1889 8.45419 52.499 8.46975 52.6407C8.5513 53.3772 9.34034 54.1503 10.7326 54.1503C12.1249 54.1503 12.776 53.4159 13.0132 52.8046C13.0493 52.7119 13.0845 52.4563 13.4085 50.3638Z" fill="#3F434F"/>
<path d="M15.8861 48.8516C13.509 50.0193 9.64312 50.0134 7.25109 48.8383C4.85906 47.6632 4.84723 45.764 7.22401 44.5963C9.6011 43.4286 13.4669 43.4344 15.859 44.6095C18.251 45.7846 18.2628 47.6838 15.8861 48.8516Z" fill="#3F434F"/>
<path d="M15.8877 48.6063C13.5107 49.774 9.64481 49.7682 7.25278 48.593C6.11201 48.0326 5.51408 47.3075 5.45681 46.5757C5.38584 47.3888 5.98471 48.2151 7.25278 48.838C9.64481 50.0131 13.5107 50.019 15.8877 48.8513C17.1312 48.2403 17.7195 47.4293 17.6566 46.6266C17.5938 47.3475 17.0045 48.0578 15.8877 48.6063Z" fill="#7C8189"/>
<path opacity="0.1" d="M7.11554 48.7676L15.7128 44.5441C13.3121 43.4376 9.55519 43.4516 7.22511 44.5963C4.89502 45.7409 4.86233 47.5882 7.11554 48.7676Z" fill="white"/>
<path d="M9.74566 47.1306C9.33199 47.3337 8.65936 47.3327 8.24321 47.1282C7.82705 46.9238 7.82488 46.5932 8.23854 46.3901C8.6522 46.187 9.32484 46.188 9.74099 46.3925C10.1571 46.5969 10.1593 46.9275 9.74566 47.1306Z" fill="#343742"/>
<path d="M9.8727 46.6479L9.8727 41.9461C9.8727 41.9443 9.8727 41.9424 9.8727 41.9408L9.8727 41.935L9.87146 41.935C9.85776 41.64 9.53686 41.185 8.98873 41.185C8.4406 41.185 8.1172 41.6394 8.11097 41.935L8.11035 41.935L8.11035 41.9382C8.11035 41.94 8.11035 41.9416 8.11035 41.9435L8.11035 46.6861L8.1116 46.6861C8.10537 46.8018 8.19035 46.9189 8.37088 47.0076C8.71855 47.1784 9.28007 47.1792 9.62557 47.0094C9.82602 46.9107 9.85652 46.805 9.8727 46.6479Z" fill="#B0B7C9"/>
<path d="M9.87142 46.6478L9.87142 41.946C9.87142 41.9442 9.87142 41.9423 9.87142 41.9407V41.9349H9.87017C9.85648 41.6399 9.53557 41.1849 8.98744 41.1849C8.92955 41.1849 8.87445 41.1909 8.82154 41.2005C9.26789 41.2805 9.52654 41.6714 9.53868 41.9352H9.53993V41.941C9.53993 41.9428 9.53993 41.9447 9.53993 41.9463L9.53993 46.491C9.53308 46.6576 9.49324 46.8706 9.29279 46.9691C9.00736 47.1095 8.62171 47.0941 8.2373 46.9219C8.27403 46.9521 8.31637 46.9813 8.36959 47.0075C8.71727 47.1783 9.27878 47.1791 9.62428 47.0093C9.82473 46.9106 9.87951 46.7911 9.87142 46.6478Z" fill="#868B9B"/>
<path d="M8.28201 41.7358C8.24684 41.6269 8.56152 41.2784 8.77722 41.2784C8.94064 41.2871 9.07416 41.5488 9.05269 41.7352C9.02467 41.9839 8.36698 41.9993 8.28201 41.7358Z" fill="#DAE2F2"/>
<path d="M8.3255 41.9823C8.3255 41.9823 8.3252 46.7111 8.3252 46.8276C8.57016 47.0175 9.07408 46.9622 9.07408 46.9622L9.07408 42.0908C8.81262 42.1147 8.53374 42.0779 8.3255 41.9823Z" fill="#DAE2F2"/>
<path d="M9.14844 41.765C9.14844 41.3622 9.44631 41.6761 9.44631 41.8233C9.44631 41.9934 9.14844 41.9274 9.14844 41.765Z" fill="#DAE2F2"/>
<path d="M14.8716 47.1306C14.458 47.3337 13.7853 47.3327 13.3692 47.1282C12.953 46.9238 12.9509 46.5932 13.3645 46.3901C13.7782 46.187 14.4508 46.188 14.867 46.3925C15.2831 46.5969 15.285 46.9275 14.8716 47.1306Z" fill="#343742"/>
<path d="M14.9987 46.6479L14.9987 41.9461C14.9987 41.9443 14.9987 41.9424 14.9987 41.9408L14.9987 41.935L14.9974 41.935C14.9837 41.64 14.6628 41.185 14.1147 41.185C13.5666 41.185 13.2432 41.6394 13.237 41.935L13.2363 41.935L13.2363 41.9382C13.2363 41.94 13.2363 41.9416 13.2363 41.9435L13.2363 46.6861L13.2376 46.6861C13.2313 46.8018 13.3163 46.9189 13.4968 47.0076C13.8445 47.1784 14.406 47.1792 14.7515 47.0094C14.952 46.9107 14.9825 46.805 14.9987 46.6479Z" fill="#B0B7C9"/>
<path d="M14.9981 46.6478L14.9981 41.946C14.9981 41.9442 14.9981 41.9423 14.9981 41.9407V41.9349H14.9968C14.9831 41.6399 14.6622 41.1849 14.1141 41.1849C14.0562 41.1849 14.0011 41.1909 13.9485 41.2005C14.3948 41.2805 14.6535 41.6714 14.6656 41.9352H14.6669V41.941C14.6669 41.9428 14.6669 41.9447 14.6669 41.9463L14.6669 46.491C14.66 46.6576 14.6202 46.8706 14.4197 46.9691C14.1343 47.1095 13.7487 47.0941 13.3643 46.9219C13.401 46.9521 13.4433 46.9813 13.4965 47.0075C13.8442 47.1783 14.4057 47.1791 14.7512 47.0093C14.9514 46.9106 15.0062 46.7911 14.9981 46.6478Z" fill="#868B9B"/>
<path d="M13.408 41.7358C13.3728 41.6269 13.6875 41.2784 13.9032 41.2784C14.0666 41.2871 14.1998 41.5488 14.1787 41.7352C14.1507 41.9839 13.493 41.9993 13.408 41.7358Z" fill="#DAE2F2"/>
<path d="M13.4515 41.9823C13.4515 41.9823 13.4512 46.7111 13.4512 46.8276C13.6961 47.0175 14.2001 46.9622 14.2001 46.9622L14.2001 42.0908C13.9389 42.1147 13.66 42.0779 13.4515 41.9823Z" fill="#DAE2F2"/>
<path d="M14.2734 41.765C14.2734 41.3622 14.5713 41.6761 14.5713 41.8233C14.5713 41.9934 14.2734 41.9274 14.2734 41.765Z" fill="#DAE2F2"/>
<path d="M17.6525 46.896C17.5787 47.6084 16.9907 48.309 15.8864 48.8516C13.5093 50.0193 9.64345 50.0135 7.25142 48.8384C6.09074 48.2682 5.49218 47.5274 5.45327 46.7826L5.45327 48.1945C5.45047 48.2467 5.45047 48.2989 5.45327 48.3511L5.45327 48.4657H5.46323C5.55474 49.1716 6.15018 49.8657 7.25111 50.4068C9.64314 51.5819 13.509 51.5877 15.8861 50.42C16.9898 49.8779 17.5778 49.1776 17.6522 48.4657H17.6525V48.4644C17.6634 48.3606 17.6637 48.2565 17.6525 48.1527L17.6525 46.896Z" fill="#343742"/>
<path d="M13.715 49.5336C11.5452 49.9296 9.00319 49.6991 7.2508 48.8381C7.21532 48.8206 7.18201 48.8026 7.14746 48.7849L7.14746 50.3536C7.18201 50.3713 7.21532 50.3893 7.2508 50.4068C9.00319 51.2678 11.5456 51.4982 13.715 51.1023L13.715 49.5336Z" fill="#454A56"/>
<path d="M17.6516 48.3176V48.3189H17.6513C17.5769 49.0308 16.9892 49.7308 15.8852 50.2732C13.5081 51.4409 9.64223 51.4351 7.2502 50.26C6.14928 49.7191 5.55384 49.0247 5.46233 48.3189H5.45237C5.45268 48.3298 5.45175 48.3404 5.45237 48.3512L5.45237 48.4659H5.46233C5.55384 49.1717 6.14928 49.8659 7.2502 50.4069C9.64223 51.5821 13.5081 51.5879 15.8852 50.4202C16.9889 49.878 17.5769 49.1778 17.6513 48.4659H17.6516V48.4646C17.6593 48.3883 17.6597 48.3117 17.6559 48.2352C17.6544 48.2625 17.6544 48.29 17.6516 48.3176Z" fill="#2C2F38"/>
<path d="M11.2393 57.2385C11.2393 57.2385 11.5851 57.3122 11.8154 57.3122C11.8154 57.3122 11.7002 58.7336 12.2474 60.3759C13.0682 62.839 14.768 64.4445 14.7247 64.5181C14.5663 64.6161 11.4842 62.2142 11.2393 57.2385Z" fill="#454A56"/>
<path d="M19.9801 51.7974C19.9801 51.7974 19.4472 50.0328 19.8649 48.4763C20.2827 46.92 21.5501 45.9274 21.6077 45.9396C21.6653 45.9518 20.4554 47.214 20.1818 48.5621C19.7843 50.5198 20.165 51.7768 19.9801 51.7974Z" fill="#4E5460"/>
<path d="M61.8055 65.8603L35.7502 65.7576C32.6162 65.7455 30.0879 63.5571 30.0997 60.8694L30.3767 4.84801C30.3907 2.15828 32.9425 -0.0120295 36.0788 5.01814e-05L62.1342 0.102727C65.2681 0.114806 67.7964 2.30323 67.7847 4.99095L67.5077 61.0123C67.4959 63.702 64.9418 65.8723 61.8055 65.8603Z" fill="#3629B7"/>
<path d="M62.0959 2.03732L57.044 2.01718C56.3656 2.01517 55.8139 2.5044 55.8116 3.1124L55.8069 3.89758C55.8045 4.50559 55.2529 4.99482 54.5744 4.9928L44.7265 4.95455C44.0481 4.95254 43.5034 4.45727 43.5058 3.84926L43.5105 3.06409C43.5128 2.45608 42.9659 1.96283 42.2898 1.9588L40.5127 1.95075L36.0923 1.93263C33.8973 1.92457 32.1085 3.4446 32.0991 5.32701L31.8291 60.0075C31.8197 61.8899 33.5898 63.422 35.7847 63.4301L61.7884 63.5328C63.9834 63.5408 65.7722 62.0208 65.7816 60.1384L66.0515 5.45787C66.0633 3.57747 64.2909 2.04537 62.0959 2.03732Z" fill="white"/>
<rect x="34.2695" y="28.3008" width="32.8413" height="3.4984" rx="1.7492" fill="#5655B9"/>
<rect x="37.3486" y="29.1755" width="27.7098" height="1.7492" rx="0.874601" fill="#3629B7"/>
<path d="M57.5246 15.8477H56.0881H40.0039C38.0443 15.8477 36.455 16.697 36.4317 17.749C36.4317 17.7568 36.4297 17.7641 36.4297 17.7719C36.4297 17.7796 36.4317 17.787 36.4317 17.7947V48.9387H50.2419C51.0229 49.3503 52.0907 49.6048 53.2698 49.6048C54.4489 49.6048 55.5163 49.3503 56.2976 48.9387C57.4452 48.3338 57.5246 47.6574 57.5246 46.8472L57.6003 17.7719C57.6003 16.7091 59.2005 15.8477 61.1746 15.8477H57.5246Z" fill="#FFAF2A"/>
<path d="M55.6208 23.5196H38.2891V23.8566H55.6208V23.5196Z" fill="#D2CFCA"/>
<path d="M55.6208 25.4883H38.2891V25.8253H55.6208V25.4883Z" fill="#D2CFCA"/>
<path d="M55.6208 27.4571H38.2891V27.7941H55.6208V27.4571Z" fill="#D2CFCA"/>
<path d="M55.6208 29.4258H38.2891V29.7628H55.6208V29.4258Z" fill="#D2CFCA"/>
<path d="M55.6208 31.3946H38.2891V31.7316H55.6208V31.3946Z" fill="#D2CFCA"/>
<path d="M55.6208 33.3789H38.2891V33.7159H55.6208V33.3789Z" fill="#D2CFCA"/>
<path d="M55.6208 35.6133H38.2891V35.9503H55.6208V35.6133Z" fill="#D2CFCA"/>
<path d="M55.6208 37.8477H38.2891V38.1847H55.6208V37.8477Z" fill="#D2CFCA"/>
<path d="M55.6208 40.0664H38.2891V40.4034H55.6208V40.0664Z" fill="#D2CFCA"/>
<path d="M55.6208 21.3477H38.2891V21.6847H55.6208V21.3477Z" fill="#D2CFCA"/>
<g filter="url(#filter0_d_2014_3563)">
<path d="M49.8696 46.7712C49.8696 46.4996 49.9281 46.2377 50.0296 45.9883H49.8696L34.3066 47.6463L35.1125 48.4072C35.9549 49.2023 37.3004 49.6728 38.7324 49.6728H54.0955C51.7617 49.6728 49.8696 48.3737 49.8696 46.7712Z" fill="#3629B7"/>
</g>
<rect x="34.2695" y="72.9053" width="31.815" height="6.99681" rx="3.4984" fill="#FFAF2A"/>
<path d="M47.8706 76.3531C47.8706 76.5024 47.8346 76.6424 47.7626 76.7731C47.6933 76.9038 47.5826 77.0091 47.4306 77.0891C47.2813 77.1691 47.0919 77.2091 46.8626 77.2091H46.3946V78.2811H45.8346V75.4891H46.8626C47.0786 75.4891 47.2626 75.5264 47.4146 75.6011C47.5666 75.6758 47.6799 75.7784 47.7546 75.9091C47.8319 76.0398 47.8706 76.1878 47.8706 76.3531ZM46.8386 76.7571C46.9933 76.7571 47.1079 76.7224 47.1826 76.6531C47.2573 76.5811 47.2946 76.4811 47.2946 76.3531C47.2946 76.0811 47.1426 75.9451 46.8386 75.9451H46.3946V76.7571H46.8386ZM48.1242 77.1651C48.1242 76.9411 48.1682 76.7424 48.2562 76.5691C48.3469 76.3958 48.4682 76.2624 48.6202 76.1691C48.7749 76.0758 48.9469 76.0291 49.1362 76.0291C49.3015 76.0291 49.4455 76.0624 49.5682 76.1291C49.6935 76.1958 49.7935 76.2798 49.8682 76.3811V76.0651H50.4322V78.2811H49.8682V77.9571C49.7962 78.0611 49.6962 78.1478 49.5682 78.2171C49.4429 78.2838 49.2975 78.3171 49.1322 78.3171C48.9455 78.3171 48.7749 78.2691 48.6202 78.1731C48.4682 78.0771 48.3469 77.9424 48.2562 77.7691C48.1682 77.5931 48.1242 77.3918 48.1242 77.1651ZM49.8682 77.1731C49.8682 77.0371 49.8415 76.9211 49.7882 76.8251C49.7349 76.7264 49.6629 76.6518 49.5722 76.6011C49.4815 76.5478 49.3842 76.5211 49.2802 76.5211C49.1762 76.5211 49.0802 76.5464 48.9922 76.5971C48.9042 76.6478 48.8322 76.7224 48.7762 76.8211C48.7229 76.9171 48.6962 77.0318 48.6962 77.1651C48.6962 77.2984 48.7229 77.4158 48.7762 77.5171C48.8322 77.6158 48.9042 77.6918 48.9922 77.7451C49.0829 77.7984 49.1789 77.8251 49.2802 77.8251C49.3842 77.8251 49.4815 77.7998 49.5722 77.7491C49.6629 77.6958 49.7349 77.6211 49.7882 77.5251C49.8415 77.4264 49.8682 77.3091 49.8682 77.1731ZM53.0991 76.0651L51.7271 79.3291H51.1311L51.6111 78.2251L50.7231 76.0651H51.3511L51.9231 77.6131L52.5031 76.0651H53.0991Z" fill="white"/>
<g clip-path="url(#clip0_2014_3563)">
<path d="M85.6362 61.6054C85.6362 56.7367 81.04 52.7899 75.3739 52.7899C69.7057 52.7899 65.1104 56.7367 65.1104 61.6054C65.1104 63.0407 65.5131 64.3934 66.2215 65.5917H66.2179C66.2179 65.5917 66.2239 65.5992 66.2321 65.6098C66.4113 65.9096 66.6068 66.2009 66.8236 66.4797C67.5207 67.5901 68.5747 69.569 68.5747 71.412C68.5747 74.1663 72.4867 77.5274 72.4867 77.5274H75.3739H78.2604C78.2604 77.5274 82.1713 74.1663 82.1713 71.412C82.1713 69.569 83.2258 67.5901 83.9224 66.4797C84.14 66.2009 84.3355 65.9096 84.5136 65.6098C84.5229 65.5992 84.5283 65.5917 84.5283 65.5917H84.5256C85.2334 64.3934 85.6362 63.0404 85.6362 61.6054Z" fill="#F2A320"/>
<path d="M65.7119 61.6061C65.7119 62.9235 66.0635 64.186 66.7574 65.3588C66.7675 65.375 67.3252 66.1944 67.3252 66.1944L67.3541 66.2346C68.1852 67.5581 69.177 69.5297 69.177 71.413C69.177 73.6078 72.0139 76.3444 72.7438 77.0103C73.1691 77.0103 77.5773 77.0103 78.0038 77.0103C78.7326 76.3444 81.5705 73.6078 81.5705 71.413C81.5705 69.53 82.5618 67.5581 83.3938 66.2346L83.4221 66.1944L83.9793 65.3752C84.683 64.1862 85.0337 62.9235 85.0337 61.6064C85.0337 57.0306 80.7007 53.3081 75.3742 53.3081C70.0466 53.3076 65.7119 57.0303 65.7119 61.6061Z" fill="url(#paint0_radial_2014_3563)"/>
<path d="M79.467 67.7158L79.2036 68.3965L79.1895 68.4314C78.7927 69.5319 78.3221 71.1693 78.3221 72.734C78.3221 74.5599 76.9711 76.835 76.6238 77.3879C76.4207 77.3879 74.324 77.3879 74.1225 77.3879C73.7745 76.8352 72.424 74.5599 72.424 72.734C72.424 71.1693 71.9531 69.5319 71.5571 68.4314L71.5424 68.3965C71.5424 68.3965 71.2785 67.7158 71.2731 67.7025C71.0204 66.9554 70.8649 66.1641 70.805 65.3423C70.7864 65.5903 70.7764 65.8431 70.7764 66.0981C70.7764 67.1942 70.9439 68.2431 71.2731 69.2185C71.2785 69.2325 71.5424 69.9144 71.5424 69.9144L71.5571 69.9474C71.9528 71.0479 72.424 72.687 72.424 74.2516C72.424 76.0775 73.7745 78.3512 74.1225 78.9056C74.3237 78.9056 76.4204 78.9056 76.6238 78.9056C76.9711 78.3512 78.3221 76.0775 78.3221 74.2516C78.3221 72.6872 78.7924 71.0479 79.1895 69.9474L79.2036 69.9144L79.467 69.2325C79.8017 68.2433 79.9689 67.1944 79.9689 66.0983C79.9689 65.8431 79.9593 65.5905 79.9406 65.3414C79.8815 66.1638 79.7241 66.9575 79.467 67.7158Z" fill="url(#paint1_linear_2014_3563)"/>
<path d="M70.0907 56.0765C69.8083 55.8337 69.2078 55.9548 68.7514 56.3471C68.2941 56.7389 68.1525 57.2547 68.4366 57.498C68.7195 57.7405 69.3184 57.6191 69.7759 57.2269C70.2323 56.8339 70.3737 56.3188 70.0907 56.0765Z" fill="url(#paint2_radial_2014_3563)"/>
<path d="M67.6078 58.21C67.4359 58.0622 67.0729 58.1355 66.7946 58.3734C66.5182 58.6125 66.4324 58.9247 66.6043 59.0729C66.7766 59.2198 67.1397 59.146 67.4166 58.9083C67.6922 58.6699 67.7791 58.3575 67.6078 58.21Z" fill="url(#paint3_radial_2014_3563)"/>
<path d="M70.5629 74.8498L80.4806 75.9064C80.7639 75.938 80.9711 76.1763 80.9711 76.4561C80.9711 76.4839 80.9697 76.5111 80.9654 76.5375L80.9226 76.8402C80.8987 77.0081 80.8055 77.1576 80.6647 77.2528C80.5498 77.3307 80.4123 77.3651 80.275 77.3508L70.3587 76.294C70.0466 76.261 69.8282 75.9773 69.8717 75.6622L69.914 75.3604C69.9382 75.1937 70.0324 75.0437 70.1721 74.9485C70.2873 74.8702 70.4259 74.8353 70.5629 74.8498Z" fill="#808184"/>
<path d="M70.5243 76.5583L80.442 77.6163C80.7269 77.6469 80.9325 77.8846 80.9325 78.1655C80.9325 78.1931 80.9311 78.2191 80.9268 78.2467L80.884 78.5496C80.86 78.7157 80.7666 78.8668 80.6261 78.962C80.5112 79.0399 80.3737 79.0733 80.2372 79.06L70.32 78.0025C70.0077 77.9685 69.7895 77.6855 69.8326 77.3714L69.877 77.0684C69.9211 76.755 70.2119 76.5253 70.5243 76.5583Z" fill="#808184"/>
<path d="M70.4647 78.3232L80.3829 79.38C80.6678 79.41 80.875 79.6488 80.875 79.9293C80.875 79.9557 80.8734 79.9828 80.8693 80.0111L80.8257 80.3136C80.8026 80.4804 80.7095 80.6298 80.5687 80.7251C80.4537 80.8032 80.3146 80.839 80.1787 80.824L70.2626 79.7672C69.9489 79.7335 69.7321 79.4509 69.7762 79.1361L69.8187 78.8327C69.8427 78.6659 69.9361 78.5157 70.0769 78.4208C70.1918 78.3426 70.329 78.308 70.4647 78.3232Z" fill="#808184"/>
<path d="M76.9981 82.2649C76.9981 82.6836 76.2686 83.0233 75.3732 83.0233C74.4766 83.0233 73.7471 82.6836 73.7471 82.2649C73.7471 81.8471 74.4766 81.5073 75.3732 81.5073C76.2686 81.5075 76.9981 81.8471 76.9981 82.2649Z" fill="#808184"/>
<path d="M73.835 82.265C73.835 82.6493 74.5248 82.9597 75.3742 82.9597C76.2228 82.9597 76.9109 82.6493 76.9109 82.265C76.9109 81.8816 76.2228 81.5703 75.3742 81.5703C74.5248 81.5705 73.835 81.8818 73.835 82.265Z" fill="#6D6E70"/>
<path d="M79.7351 80.0586C79.7351 81.4143 77.7784 82.5175 75.3737 82.5175C72.9674 82.5175 71.0107 81.4143 71.0107 80.0586C71.0107 78.7023 72.9672 77.5987 75.3737 77.5987C77.7784 77.599 79.7351 78.7023 79.7351 80.0586Z" fill="#808184"/>
<path d="M79.7762 74.6163C80.0913 74.6163 80.3479 74.839 80.3479 75.1122V80.5975C80.3479 80.8704 80.0916 81.0931 79.7762 81.0931H70.9699C70.6551 81.0931 70.3975 80.8707 70.3975 80.5975V75.1122C70.3975 74.8387 70.6548 74.6163 70.9699 74.6163H79.7762Z" fill="#808184"/>
<path d="M70.6333 74.6163H80.3479V76.5959H70.3975V74.6163H70.6333Z" fill="#808184"/>
<path d="M71.2461 80.0583C71.2461 81.3032 73.0933 82.3142 75.3733 82.3142C77.6521 82.3142 79.4993 81.3035 79.4993 80.0583C79.4993 78.8128 77.6521 77.8032 75.3733 77.8032C73.0933 77.8034 71.2461 78.8128 71.2461 80.0583Z" fill="url(#paint4_radial_2014_3563)"/>
<path d="M70.6338 80.5975C70.6338 80.7575 70.7855 80.8894 70.9701 80.8894H79.7767C79.9611 80.8894 80.1125 80.7577 80.1125 80.5975V75.1122C80.1125 74.952 79.9608 74.8203 79.7767 74.8203H70.9704C70.7855 74.8203 70.6341 74.9518 70.6341 75.1122V80.5975H70.6338Z" fill="url(#paint5_linear_2014_3563)"/>
<path d="M80.1128 74.8203H70.6338V76.3925H80.1128V74.8203Z" fill="url(#paint6_linear_2014_3563)"/>
<path d="M70.1487 75.5148C70.1773 75.3129 70.3495 75.163 70.5349 75.1821L80.4507 76.239C80.634 76.2581 80.7617 76.4399 80.7331 76.6425L80.689 76.9459C80.6607 77.1484 80.4875 77.2979 80.3042 77.2778L70.3873 76.2212C70.2038 76.2011 70.0766 76.02 70.1057 75.8175L70.1487 75.5148Z" fill="#898B8D"/>
<path d="M70.1105 77.2233C70.1393 77.0219 70.3131 76.8715 70.4966 76.8909L80.4144 77.9489C80.5965 77.968 80.7235 78.1491 80.693 78.3521L80.6524 78.6541C80.6227 78.8565 80.4492 79.0069 80.2659 78.9867L70.349 77.9299C70.1655 77.9096 70.0391 77.7285 70.0674 77.5271L70.1105 77.2233Z" fill="#898B8D"/>
<path d="M70.052 78.9868C70.0803 78.785 70.2535 78.635 70.4357 78.6542L80.3534 79.7124C80.537 79.7316 80.6625 79.9134 80.6342 80.1159L80.592 80.4193C80.5634 80.6219 80.3905 80.7697 80.2064 80.7505L70.29 79.6937C70.1051 79.6745 69.9796 79.4928 70.0079 79.2905L70.052 78.9868Z" fill="#898B8D"/>
<path d="M69.9907 75.3844C70.0185 75.1821 70.1922 75.0326 70.3755 75.0518L80.2932 76.1086C80.4768 76.1288 80.6023 76.311 80.574 76.5131L80.5313 76.8155C80.5029 77.0179 80.3284 77.1673 80.1456 77.1482L70.2279 76.0913C70.0446 76.0708 69.9188 75.8899 69.9474 75.6874L69.9907 75.3844Z" fill="url(#paint7_linear_2014_3563)"/>
<path d="M69.9527 77.0931C69.9816 76.8907 70.1543 76.7408 70.3376 76.7605L80.2553 77.8184C80.4388 77.8374 80.566 78.0191 80.536 78.2217L80.4938 78.5244C80.4652 78.727 80.2918 78.8757 80.109 78.8561L70.1919 77.7995C70.0086 77.7794 69.8809 77.5983 69.9105 77.3958L69.9527 77.0931Z" fill="url(#paint8_linear_2014_3563)"/>
<path d="M69.893 78.8574C69.9213 78.6539 70.0959 78.5054 70.2786 78.5252L80.1947 79.5821C80.3777 79.6012 80.5054 79.783 80.4763 79.9849L80.4346 80.289C80.4047 80.4908 80.232 80.6403 80.049 80.6216L70.131 79.5641C69.948 79.5439 69.8219 79.3622 69.8508 79.1596L69.893 78.8574Z" fill="url(#paint9_linear_2014_3563)"/>
<path d="M76.6852 63.645C76.6852 63.645 76.4396 63.8562 76.195 64.0655C76.195 63.9813 76.195 63.8417 76.195 63.8417L75.5782 63.7308C75.5629 63.7607 75.198 64.4571 74.3895 64.4571C74.3331 64.4571 74.3004 64.452 74.2705 64.4485C74.3168 64.3467 74.4619 64.1715 74.6177 64.0361L74.1615 63.6447C74.1615 63.6447 73.6912 64.0503 73.4246 64.2786C73.2816 64.1547 72.905 63.8328 72.905 63.8328C72.905 63.8328 72.326 64.3301 72.0896 64.5331C71.9464 64.4103 71.2481 63.8108 71.2481 63.8108C71.2481 63.8108 71.2481 64.7794 71.2481 65.0049C71.0224 65.0339 70.6861 65.0784 70.6861 65.0784L69.9088 65.5226C69.8146 65.575 69.7637 65.6629 69.7637 65.7532C69.7637 65.8054 69.7822 65.8583 69.8181 65.9055C69.9173 66.032 70.1172 66.0676 70.2648 65.9822C70.2648 65.9822 70.8236 65.6629 70.9235 65.6056C71.0393 65.5911 71.8922 65.4805 71.8922 65.4805C71.8922 65.4805 71.8922 65.1673 71.8922 65.145C71.938 65.1843 72.0899 65.3144 72.0899 65.3144C72.0899 65.3144 72.6694 64.8173 72.9053 64.6141C73.0502 64.7373 73.4249 65.0599 73.4249 65.0599C73.4249 65.0599 73.7171 64.8103 73.7266 64.801C73.8323 64.9111 74.0281 65.0091 74.3897 65.0091C74.8922 65.0091 75.2716 64.8403 75.5518 64.6386C75.5518 64.6566 75.5518 65.3998 75.5518 65.3998C75.5518 65.3998 76.3481 64.7172 76.5902 64.5079C76.5902 64.7418 76.5902 65.6547 76.5902 65.6547C76.5902 65.6547 77.3767 64.9806 77.5907 64.797C77.7065 64.9628 78.0362 65.4346 78.0362 65.4346C78.0362 65.4346 78.3655 65.1504 78.3712 65.1455C78.3712 65.1904 78.3712 65.3394 78.3712 65.3394C78.3712 65.3394 79.3097 65.5102 79.628 65.5675C79.6362 65.7885 79.6588 66.3752 79.6588 66.3752H80.6226C80.7999 66.3752 80.945 66.2522 80.945 66.0982C80.945 65.946 80.8001 65.8222 80.6226 65.8222C80.6226 65.8222 80.4526 65.8222 80.2816 65.8222C80.2734 65.5991 80.2549 65.1163 80.2549 65.1163C80.2549 65.1163 79.3377 64.9507 79.0145 64.8915C79.0145 64.7034 79.0145 63.8113 79.0145 63.8113C79.0145 63.8113 78.314 64.4129 78.1634 64.5423C78.0466 64.3762 77.7176 63.9048 77.7176 63.9048C77.7176 63.9048 77.3078 64.2566 77.234 64.3205C77.234 64.088 77.234 63.1736 77.234 63.1736L76.6852 63.645Z" fill="#FFFACF"/>
<path d="M81.8221 58.4625C80.9834 59.7088 79.0866 59.6637 77.3017 58.7793C75.5185 57.8941 74.524 56.5049 75.3617 55.2584C76.2004 54.01 78.1427 53.9892 79.9281 54.8729C81.7113 55.758 82.6607 57.2149 81.8221 58.4625Z" fill="url(#paint10_radial_2014_3563)"/>
</g>
<defs>
<filter id="filter0_d_2014_3563" x="4.30664" y="20.9883" width="79.7891" height="63.6844" filterUnits="userSpaceOnUse" color-interpolation-filters="sRGB">
<feFlood flood-opacity="0" result="BackgroundImageFix"/>
<feColorMatrix in="SourceAlpha" type="matrix" values="0 0 0 0 0 0 0 0 0 0 0 0 0 0 0 0 0 0 127 0" result="hardAlpha"/>
<feOffset dy="5"/>
<feGaussianBlur stdDeviation="15"/>
<feColorMatrix type="matrix" values="0 0 0 0 0 0 0 0 0 0 0 0 0 0 0 0 0 0 0.05 0"/>
<feBlend mode="normal" in2="BackgroundImageFix" result="effect1_dropShadow_2014_3563"/>
<feBlend mode="normal" in="SourceGraphic" in2="effect1_dropShadow_2014_3563" result="shape"/>
</filter>
<radialGradient id="paint0_radial_2014_3563" cx="0" cy="0" r="1" gradientUnits="userSpaceOnUse" gradientTransform="translate(75.7927 64.7348) scale(13.9803 12.0082)">
<stop stop-color="#F4E589"/>
<stop offset="0.1637" stop-color="#F5E181"/>
<stop offset="0.4153" stop-color="#F6D76C"/>
<stop offset="0.7216" stop-color="#F9C749"/>
<stop offset="1" stop-color="#FCB623"/>
</radialGradient>
<linearGradient id="paint1_linear_2014_3563" x1="75.3726" y1="65.4922" x2="75.3726" y2="75.0535" gradientUnits="userSpaceOnUse">
<stop stop-color="#FFF696"/>
<stop offset="0.0338" stop-color="#FDF290"/>
<stop offset="0.346" stop-color="#EDCF61"/>
<stop offset="0.6223" stop-color="#E1B53F"/>
<stop offset="0.8497" stop-color="#DAA62B"/>
<stop offset="1" stop-color="#D7A023"/>
</linearGradient>
<radialGradient id="paint2_radial_2014_3563" cx="0" cy="0" r="1" gradientUnits="userSpaceOnUse" gradientTransform="translate(69.5723 57.0343) scale(0.947536 0.813871)">
<stop stop-color="#F4E589"/>
<stop offset="0.2013" stop-color="#F5E791"/>
<stop offset="0.5107" stop-color="#F8EBA6"/>
<stop offset="0.8878" stop-color="#FDF3C9"/>
<stop offset="1" stop-color="#FFF5D5"/>
</radialGradient>
<radialGradient id="paint3_radial_2014_3563" cx="0" cy="0" r="1" gradientUnits="userSpaceOnUse" gradientTransform="translate(67.4142 58.8888) scale(0.574203 0.493755)">
<stop stop-color="#F4E589"/>
<stop offset="0.2013" stop-color="#F5E791"/>
<stop offset="0.5107" stop-color="#F8EBA6"/>
<stop offset="0.8878" stop-color="#FDF3C9"/>
<stop offset="1" stop-color="#FFF5D5"/>
</radialGradient>
<radialGradient id="paint4_radial_2014_3563" cx="0" cy="0" r="1" gradientUnits="userSpaceOnUse" gradientTransform="translate(75.3293 80.2827) rotate(180) scale(4.12767 2.25616)">
<stop stop-color="white"/>
<stop offset="0.9718" stop-color="#838587"/>
</radialGradient>
<linearGradient id="paint5_linear_2014_3563" x1="70.2474" y1="77.8548" x2="79.7263" y2="77.8548" gradientUnits="userSpaceOnUse">
<stop offset="0.0057" stop-color="#48484A"/>
<stop offset="0.2768" stop-color="white"/>
<stop offset="0.3245" stop-color="#EFEFF0"/>
<stop offset="0.4864" stop-color="#BFBFC1"/>
<stop offset="0.64" stop-color="#99999B"/>
<stop offset="0.7812" stop-color="#7D7E81"/>
<stop offset="0.9056" stop-color="#6D6E71"/>
<stop offset="1" stop-color="#67686B"/>
</linearGradient>
<linearGradient id="paint6_linear_2014_3563" x1="70.2474" y1="75.6064" x2="79.7263" y2="75.6064" gradientUnits="userSpaceOnUse">
<stop offset="0.0057" stop-color="#48484A"/>
<stop offset="0.2768" stop-color="white"/>
<stop offset="0.3245" stop-color="#EFEFF0"/>
<stop offset="0.4864" stop-color="#BFBFC1"/>
<stop offset="0.64" stop-color="#99999B"/>
<stop offset="0.7812" stop-color="#7D7E81"/>
<stop offset="0.9056" stop-color="#6D6E71"/>
<stop offset="1" stop-color="#67686B"/>
</linearGradient>
<linearGradient id="paint7_linear_2014_3563" x1="80.91" y1="76.1" x2="69.753" y2="76.1" gradientUnits="userSpaceOnUse">
<stop offset="0.096" stop-color="white"/>
<stop offset="0.1808" stop-color="#A6A8AB"/>
<stop offset="0.3107" stop-color="white"/>
<stop offset="0.3729" stop-color="#9C9EA1"/>
<stop offset="0.6949" stop-color="#DBDCDD"/>
<stop offset="0.9831" stop-color="#9C9EA1"/>
</linearGradient>
<linearGradient id="paint8_linear_2014_3563" x1="80.8732" y1="77.8083" x2="69.7163" y2="77.8083" gradientUnits="userSpaceOnUse">
<stop offset="0.096" stop-color="white"/>
<stop offset="0.1808" stop-color="#A6A8AB"/>
<stop offset="0.3107" stop-color="white"/>
<stop offset="0.3729" stop-color="#9C9EA1"/>
<stop offset="0.6949" stop-color="#DBDCDD"/>
<stop offset="0.9831" stop-color="#9C9EA1"/>
</linearGradient>
<linearGradient id="paint9_linear_2014_3563" x1="80.8137" y1="79.5734" x2="69.6566" y2="79.5734" gradientUnits="userSpaceOnUse">
<stop offset="0.096" stop-color="white"/>
<stop offset="0.1808" stop-color="#A6A8AB"/>
<stop offset="0.3107" stop-color="white"/>
<stop offset="0.3729" stop-color="#9C9EA1"/>
<stop offset="0.6949" stop-color="#DBDCDD"/>
<stop offset="0.9831" stop-color="#9C9EA1"/>
</linearGradient>
<radialGradient id="paint10_radial_2014_3563" cx="0" cy="0" r="1" gradientUnits="userSpaceOnUse" gradientTransform="translate(76.2831 58.1852) scale(5.69431 4.89104)">
<stop stop-color="#F4E589"/>
<stop offset="0.2013" stop-color="#F5E791"/>
<stop offset="0.5107" stop-color="#F8EBA6"/>
<stop offset="0.8878" stop-color="#FDF3C9"/>
<stop offset="1" stop-color="#FFF5D5"/>
</radialGradient>
<clipPath id="clip0_2014_3563">
<rect width="20.5258" height="32.0343" fill="white" transform="translate(65.1104 52.7899)"/>
</clipPath>
</defs>
</svg>
