<svg width="36" height="36" viewBox="0 0 36 36" fill="none" xmlns="http://www.w3.org/2000/svg">
<path d="M15.405 18H20.595C21.99 18 23.04 16.755 22.815 15.375L22.365 12.69C22.005 10.56 20.16 9 18 9C15.84 9 13.995 10.56 13.635 12.705L13.185 15.39C12.96 16.755 14.01 18 15.405 18ZM16.59 13.185C16.71 12.495 17.295 12 18 12C18.705 12 19.29 12.495 19.41 13.185L19.71 15H16.29L16.59 13.185Z" fill="white"/>
<path d="M2.49 16.665C2.295 17.055 2.22 17.52 2.34 17.985C2.58 19.02 3.48 19.53 4.635 19.485C4.635 19.485 6.87 19.485 7.56 19.485C8.805 19.485 9.825 18.615 9.825 17.55C9.825 17.34 9.78 17.145 9.72 16.95C9.705 16.905 9.705 16.875 9.735 16.83C9.87 16.59 9.945 16.32 9.945 16.035C9.945 15.57 9.735 15.135 9.405 14.805C9.36 14.76 9.36 14.715 9.375 14.655C9.48 14.355 9.48 14.01 9.39 13.68C9.15 13.035 8.565 12.6 7.905 12.57C7.86 12.57 7.83 12.555 7.8 12.525C7.545 12.21 7.08 12 6.555 12C6.105 12 5.7 12.15 5.43 12.39C5.385 12.435 5.34 12.435 5.295 12.42C5.085 12.33 4.845 12.285 4.605 12.285C3.63 12.285 2.835 13.02 2.745 13.965C2.745 13.995 2.73 14.025 2.7 14.055C2.265 14.445 2.01 15.03 2.085 15.63C2.13 15.96 2.265 16.275 2.46 16.53C2.505 16.56 2.505 16.62 2.49 16.665Z" fill="white"/>
<path d="M24.36 20.475C22.605 19.695 20.445 19.125 18 19.125C15.555 19.125 13.395 19.71 11.64 20.475C10.02 21.195 9 22.815 9 24.585V27H27V24.585C27 22.815 25.98 21.195 24.36 20.475ZM12.105 24C12.24 23.655 12.51 23.37 12.84 23.22C14.49 22.485 16.23 22.125 17.985 22.125C19.755 22.125 21.48 22.5 23.13 23.22C23.475 23.37 23.73 23.655 23.865 24H12.105Z" fill="white"/>
<path d="M1.83 21.87C0.72 22.35 0 23.43 0 24.645V27H6.75V24.585C6.75 23.34 7.095 22.17 7.695 21.15C7.14 21.06 6.585 21 6 21C4.515 21 3.105 21.315 1.83 21.87Z" fill="white"/>
<path d="M34.17 21.87C32.895 21.315 31.485 21 30 21C29.415 21 28.86 21.06 28.305 21.15C28.905 22.17 29.25 23.34 29.25 24.585V27H36V24.645C36 23.43 35.28 22.35 34.17 21.87Z" fill="white"/>
<path d="M33 16.5V15.75C33 14.1 31.65 12.75 30 12.75H27C26.37 12.75 26.025 13.47 26.415 13.965L27.465 14.91C27.18 15.375 27 15.915 27 16.5C27 18.15 28.35 19.5 30 19.5C31.65 19.5 33 18.15 33 16.5Z" fill="white"/>
</svg>
