<svg width="22" height="17" viewBox="0 0 22 17" fill="none" xmlns="http://www.w3.org/2000/svg">
<path d="M21.0083 4.35698H14.9336C14.5185 4.35698 14.1743 4.06068 14.1743 3.70339C14.1743 3.3461 14.5185 3.0498 14.9336 3.0498H21.0083C21.4234 3.0498 21.7676 3.3461 21.7676 3.70339C21.7676 4.06068 21.4234 4.35698 21.0083 4.35698Z" fill="#888888"/>
<path d="M4.80909 4.35698H0.759329C0.344229 4.35698 0 4.06068 0 3.70339C0 3.3461 0.344229 3.0498 0.759329 3.0498H4.80909C5.22419 3.0498 5.56842 3.3461 5.56842 3.70339C5.56842 4.06068 5.22419 4.35698 4.80909 4.35698Z" fill="#888888"/>
<path d="M8.85902 7.40731C6.48991 7.40731 4.55615 5.74284 4.55615 3.70365C4.55615 1.66447 6.48991 0 8.85902 0C11.2281 0 13.1619 1.66447 13.1619 3.70365C13.1619 5.74284 11.2281 7.40731 8.85902 7.40731ZM8.85902 1.30717C7.32011 1.30717 6.07481 2.37905 6.07481 3.70365C6.07481 5.02825 7.32011 6.10013 8.85902 6.10013C10.3979 6.10013 11.6432 5.02825 11.6432 3.70365C11.6432 2.37905 10.3979 1.30717 8.85902 1.30717Z" fill="#888888"/>
<path d="M21.0083 13.9429H16.9585C16.5434 13.9429 16.1992 13.6466 16.1992 13.2893C16.1992 12.932 16.5434 12.6357 16.9585 12.6357H21.0083C21.4234 12.6357 21.7676 12.932 21.7676 13.2893C21.7676 13.6466 21.4234 13.9429 21.0083 13.9429Z" fill="#888888"/>
<path d="M6.83396 13.9429H0.759329C0.344229 13.9429 0 13.6466 0 13.2893C0 12.932 0.344229 12.6357 0.759329 12.6357H6.83396C7.24906 12.6357 7.59329 12.932 7.59329 13.2893C7.59329 13.6466 7.24906 13.9429 6.83396 13.9429Z" fill="#888888"/>
<path d="M12.9083 16.9932C10.5392 16.9932 8.60547 15.3288 8.60547 13.2896C8.60547 11.2504 10.5392 9.58594 12.9083 9.58594C15.2774 9.58594 17.2112 11.2504 17.2112 13.2896C17.2112 15.3288 15.2774 16.9932 12.9083 16.9932ZM12.9083 10.8931C11.3694 10.8931 10.1241 11.965 10.1241 13.2896C10.1241 14.6142 11.3694 15.6861 12.9083 15.6861C14.4472 15.6861 15.6925 14.6142 15.6925 13.2896C15.6925 11.965 14.4472 10.8931 12.9083 10.8931Z" fill="#888888"/>
</svg>
