<svg width="28" height="24" viewBox="0 0 28 24" fill="none" xmlns="http://www.w3.org/2000/svg">
<rect width="27.7085" height="24" rx="8" fill="#656CEE"/>
<path fill-rule="evenodd" clip-rule="evenodd" d="M20.1617 7.21155C19.9885 6.76155 19.469 6.46155 18.9494 6.46155H9.42466C8.81853 6.46155 8.38559 6.76155 8.21241 7.21155L6.39404 11.7115V17.7115C6.39404 18.1615 6.7404 18.4615 7.25993 18.4615H8.12582C8.64535 18.4615 8.99171 18.1615 8.99171 17.7115V16.9615H19.3824V17.7115C19.3824 18.1615 19.7287 18.4615 20.2483 18.4615H21.1142C21.6337 18.4615 21.98 18.1615 21.98 17.7115V11.7115L20.1617 7.21155ZM9.42466 14.7115C8.73195 14.7115 8.12583 14.1865 8.12583 13.5865C8.12583 12.9865 8.73195 12.4615 9.42466 12.4615C10.1174 12.4615 10.7235 12.9865 10.7235 13.5865C10.7235 14.1865 10.1174 14.7115 9.42466 14.7115ZM18.9494 14.7115C18.2567 14.7115 17.6506 14.1865 17.6506 13.5865C17.6506 12.9865 18.2567 12.4615 18.9494 12.4615C19.6422 12.4615 20.2483 12.9865 20.2483 13.5865C20.2483 14.1865 19.6422 14.7115 18.9494 14.7115ZM8.12583 10.9615L9.42466 7.58653H18.9494L20.2483 10.9615H8.12583Z" fill="white"/>
</svg>
