<svg width="33" height="33" viewBox="0 0 33 33" fill="none" xmlns="http://www.w3.org/2000/svg">
<path d="M12.2442 18.6776C9.06071 18.6776 2.72095 20.2669 2.72095 23.4319V25.809H21.7675V23.4319C21.7675 20.2669 15.4277 18.6776 12.2442 18.6776ZM5.90444 23.0923C7.04723 22.3044 9.80897 21.3943 12.2442 21.3943C14.6794 21.3943 17.4412 22.3044 18.584 23.0923H5.90444ZM12.2442 16.3004C14.8699 16.3004 17.0058 14.1678 17.0058 11.5461C17.0058 8.92448 14.8699 6.79184 12.2442 6.79184C9.61851 6.79184 7.48257 8.92448 7.48257 11.5461C7.48257 14.1678 9.61851 16.3004 12.2442 16.3004ZM12.2442 9.50858C13.3734 9.50858 14.2849 10.4187 14.2849 11.5461C14.2849 12.6736 13.3734 13.5837 12.2442 13.5837C11.115 13.5837 10.2035 12.6736 10.2035 11.5461C10.2035 10.4187 11.115 9.50858 12.2442 9.50858ZM21.8219 18.7591C23.4 19.9001 24.4884 21.4215 24.4884 23.4319V25.809H29.9302V23.4319C29.9302 20.688 25.1686 19.1258 21.8219 18.7591ZM20.407 16.3004C23.0327 16.3004 25.1686 14.1678 25.1686 11.5461C25.1686 8.92448 23.0327 6.79184 20.407 6.79184C19.6723 6.79184 18.9921 6.96843 18.3663 7.26727C19.2234 8.47622 19.7268 9.95684 19.7268 11.5461C19.7268 13.1354 19.2234 14.616 18.3663 15.825C18.9921 16.1238 19.6723 16.3004 20.407 16.3004Z" fill="#F37E00"/>
</svg>
