<svg width="9" height="11" viewBox="0 0 9 11" fill="none" xmlns="http://www.w3.org/2000/svg">
<g clip-path="url(#clip0_2012_530)">
<path d="M1.25426 7.43282L0.636764 8.9702C0.618969 9.01449 0.611287 9.06386 0.61467 9.11219C0.618054 9.16052 0.632353 9.20569 0.655796 9.24209C0.679239 9.27849 0.710794 9.30452 0.74655 9.31697C0.782306 9.32941 0.820691 9.32771 0.856944 9.31208L2.11571 8.76989C2.31638 8.68353 2.50376 8.54603 2.6665 8.36573L7.30485 3.22321C7.47384 3.03586 7.58238 2.77307 7.60659 2.49263C7.6308 2.2122 7.56869 1.9371 7.43393 1.72785C7.29917 1.5186 7.1028 1.39235 6.88802 1.37686C6.67323 1.36138 6.45763 1.45793 6.28863 1.64527L1.6499 6.78776C1.48725 6.96819 1.35264 7.18765 1.25426 7.43282Z" fill="white"/>
</g>
<defs>
<clipPath id="clip0_2012_530">
<rect width="7.65513" height="10.0061" fill="white" transform="matrix(0.997411 0.0719179 -0.0860008 0.996295 0.860532 0)"/>
</clipPath>
</defs>
</svg>
