<svg width="36" height="36" viewBox="0 0 36 36" fill="none" xmlns="http://www.w3.org/2000/svg">
<path d="M10.5 11.25C12.1569 11.25 13.5 9.90685 13.5 8.25C13.5 6.59315 12.1569 5.25 10.5 5.25C8.84315 5.25 7.5 6.59315 7.5 8.25C7.5 9.90685 8.84315 11.25 10.5 11.25Z" fill="black"/>
<path d="M16.725 17.25C16.26 16.92 15.84 16.56 15.495 16.17L13.395 13.845C13.11 13.53 12.75 13.275 12.36 13.095C11.925 12.885 11.43 12.75 10.92 12.75H10.875C9.015 12.75 7.5 14.265 7.5 16.125V17.25H3V29.25C3 30.9 4.35 32.25 6 32.25H30C31.65 32.25 33 30.9 33 29.25V17.25H16.725ZM10.5 29.25H7.5V20.25H10.5V29.25ZM16.5 29.25H13.5V20.25H16.5V29.25ZM22.5 29.25H19.5V20.25H22.5V29.25ZM28.5 29.25H25.5V20.25H28.5V29.25ZM26.13 10.065C26.985 10.995 27.36 12.18 27.135 13.365L26.97 14.25H29.835L29.925 13.605C30.24 11.565 29.52 9.54 27.975 8.04L27.87 7.935C27.015 7.005 26.64 5.82 26.865 4.635L27 3.75H24.165L24.075 4.395C23.775 6.435 24.48 8.46 26.025 9.975L26.13 10.065ZM20.13 10.065C20.985 10.995 21.36 12.18 21.135 13.365L20.97 14.25H23.835L23.925 13.605C24.24 11.565 23.52 9.54 21.975 8.04L21.87 7.935C21.015 7.005 20.64 5.82 20.865 4.635L21 3.75H18.165L18.075 4.395C17.775 6.435 18.48 8.46 20.025 9.975L20.13 10.065Z" fill="black"/>
</svg>
