<svg width="22" height="17" viewBox="0 0 22 17" fill="none" xmlns="http://www.w3.org/2000/svg">
<path d="M21.0083 4.3573H14.9336C14.5185 4.3573 14.1743 4.061 14.1743 3.70371C14.1743 3.34642 14.5185 3.05013 14.9336 3.05013H21.0083C21.4234 3.05013 21.7676 3.34642 21.7676 3.70371C21.7676 4.061 21.4234 4.3573 21.0083 4.3573Z" fill="#888888"/>
<path d="M4.80909 4.3573H0.759329C0.344229 4.3573 0 4.061 0 3.70371C0 3.34642 0.344229 3.05013 0.759329 3.05013H4.80909C5.22419 3.05013 5.56842 3.34642 5.56842 3.70371C5.56842 4.061 5.22419 4.3573 4.80909 4.3573Z" fill="#888888"/>
<path d="M8.85902 7.40731C6.48991 7.40731 4.55615 5.74284 4.55615 3.70365C4.55615 1.66447 6.48991 0 8.85902 0C11.2281 0 13.1619 1.66447 13.1619 3.70365C13.1619 5.74284 11.2281 7.40731 8.85902 7.40731ZM8.85902 1.30717C7.32011 1.30717 6.07481 2.37905 6.07481 3.70365C6.07481 5.02825 7.32011 6.10013 8.85902 6.10013C10.3979 6.10013 11.6432 5.02825 11.6432 3.70365C11.6432 2.37905 10.3979 1.30717 8.85902 1.30717Z" fill="#888888"/>
<path d="M21.0083 13.9432H16.9585C16.5434 13.9432 16.1992 13.6469 16.1992 13.2896C16.1992 12.9323 16.5434 12.636 16.9585 12.636H21.0083C21.4234 12.636 21.7676 12.9323 21.7676 13.2896C21.7676 13.6469 21.4234 13.9432 21.0083 13.9432Z" fill="#888888"/>
<path d="M6.83396 13.9432H0.759329C0.344229 13.9432 0 13.6469 0 13.2896C0 12.9323 0.344229 12.636 0.759329 12.636H6.83396C7.24906 12.636 7.59329 12.9323 7.59329 13.2896C7.59329 13.6469 7.24906 13.9432 6.83396 13.9432Z" fill="#888888"/>
<path d="M12.9083 16.9932C10.5392 16.9932 8.60547 15.3288 8.60547 13.2896C8.60547 11.2504 10.5392 9.58592 12.9083 9.58592C15.2774 9.58592 17.2112 11.2504 17.2112 13.2896C17.2112 15.3288 15.2774 16.9932 12.9083 16.9932ZM12.9083 10.8931C11.3694 10.8931 10.1241 11.965 10.1241 13.2896C10.1241 14.6142 11.3694 15.6861 12.9083 15.6861C14.4472 15.6861 15.6925 14.6142 15.6925 13.2896C15.6925 11.965 14.4472 10.8931 12.9083 10.8931Z" fill="#888888"/>
</svg>
