<svg width="22" height="20" viewBox="0 0 22 20" fill="none" xmlns="http://www.w3.org/2000/svg">
<path d="M15.3789 0.739258C18.4912 0.739258 21.0283 3.28676 21.0283 6.40918C21.0283 9.6558 19.5958 12.3966 17.666 14.5059C15.7293 16.6225 13.3306 18.0569 11.5146 18.6787L11.5039 18.6826C11.3547 18.7362 11.1416 18.7705 10.8838 18.7705C10.6258 18.7705 10.4119 18.7363 10.2627 18.6826L10.2529 18.6787L9.90527 18.5527C8.13881 17.8749 5.9173 16.4885 4.10156 14.5029C2.17133 12.3921 0.739318 9.65072 0.739258 6.40918C0.739258 3.27741 3.27563 0.739258 6.38867 0.739258C7.90414 0.739305 9.31468 1.32886 10.3594 2.38086L10.8838 2.90918L11.4082 2.38086C12.4529 1.32883 13.8634 0.73927 15.3789 0.739258ZM15.3887 0.777344C13.6215 0.77747 11.9788 1.60027 10.918 3.02246C10.9168 3.02278 10.9156 3.0241 10.9141 3.02441C10.9083 3.02561 10.9011 3.02637 10.8936 3.02637C10.886 3.02635 10.8787 3.02562 10.873 3.02441C10.872 3.02418 10.871 3.02367 10.8701 3.02344C9.79024 1.59205 8.15816 0.777399 6.38867 0.777344C3.29452 0.777344 0.779297 3.30477 0.779297 6.40918C0.779363 10.1188 2.5705 12.984 4.61816 14.998C6.65668 17.0031 9.00192 18.2192 10.2705 18.6523L10.2754 18.6543C10.4787 18.722 10.7167 18.7383 10.8887 18.7383C11.0606 18.7383 11.2986 18.722 11.502 18.6543L11.5078 18.6523C12.7701 18.2194 15.1153 17.0059 17.1553 15.002C19.2043 12.9891 20.998 10.1239 20.998 6.40918C20.998 3.30477 18.4828 0.777344 15.3887 0.777344Z" fill="currentColor" stroke="currentColor" stroke-width="1.4785"/>
<path d="M17.2327 7.6875C17.2327 6.32913 16.3257 4.97076 15.4187 4.51797" stroke="currentColor" stroke-linecap="round" stroke-linejoin="round"/>
</svg>
