<svg width="17" height="22" viewBox="0 0 17 22" fill="none" xmlns="http://www.w3.org/2000/svg">
<path d="M8.23981 10.13C5.44314 10.13 3.16699 7.85735 3.16699 5.065C3.16699 2.27264 5.44314 0 8.23981 0C11.0365 0 13.3126 2.27264 13.3126 5.065C13.3126 7.85735 11.0365 10.13 8.23981 10.13ZM8.23981 1.3213C6.17539 1.3213 4.49033 3.00376 4.49033 5.065C4.49033 7.12623 6.17539 8.80869 8.23981 8.80869C10.3042 8.80869 11.9893 7.12623 11.9893 5.065C11.9893 3.00376 10.3042 1.3213 8.23981 1.3213Z" fill="currentColor"/>
<path d="M15.8183 18.9387C15.4566 18.9387 15.1566 18.6392 15.1566 18.278C15.1566 15.239 12.0513 12.7726 8.24005 12.7726C4.42878 12.7726 1.32334 15.239 1.32334 18.278C1.32334 18.6392 1.02338 18.9387 0.661671 18.9387C0.299958 18.9387 0 18.6392 0 18.278C0 14.5167 3.69653 11.4513 8.24005 11.4513C12.7835 11.4513 16.48 14.5167 16.48 18.278C16.48 18.6392 16.18 18.9387 15.8183 18.9387Z" fill="currentColor"/>
<path d="M15.8183 17.4348C15.4566 17.4348 15.1566 17.7343 15.1566 18.0954C15.1566 21.1344 10.3286 20.6325 8.24005 20.6325C6.15154 20.6325 1.32334 21.1344 1.32334 18.0954C1.32334 17.7343 1.02338 17.4348 0.661671 17.4348C0.299958 17.4348 0 17.7343 0 18.0954C0 21.8567 3.69653 21.7334 8.24005 21.7334C12.7835 21.7334 16.48 21.8567 16.48 18.0954C16.48 17.7343 16.18 17.4348 15.8183 17.4348Z" fill="currentColor"/>
</svg>
