<svg width="21" height="21" viewBox="0 0 21 21" fill="none" xmlns="http://www.w3.org/2000/svg">
<path d="M18.8078 5.01227L12.8059 0.819548C11.17 -0.324868 8.65885 -0.262445 7.08548 0.954796L1.86515 5.02267C0.823167 5.83417 0 7.49877 0 8.80959V15.9882C0 18.6412 2.1569 20.8051 4.81396 20.8051H16.0465C18.7036 20.8051 20.8605 18.6516 20.8605 15.9986V8.94484C20.8605 7.54039 19.9539 5.81336 18.8078 5.01227ZM11.2117 16.6436C11.2117 17.0702 10.8574 17.4239 10.4302 17.4239C10.003 17.4239 9.64873 17.0702 9.64873 16.6436V13.5225C9.64873 13.096 10.003 12.7422 10.4302 12.7422C10.8574 12.7422 11.2117 13.096 11.2117 13.5225V16.6436Z" fill="currentColor"/>
</svg>
