<svg width="48" height="48" viewBox="0 0 48 48" fill="none" xmlns="http://www.w3.org/2000/svg">
<rect width="48" height="48" rx="24" fill="#EEF3F1"/>
<path d="M18.4703 29.9514H18.4628C17.5806 29.9514 16.998 29.2286 17 28.477M18.4703 29.9514H29.5359M18.4703 29.9514C17.5863 29.9514 17.002 29.2296 17 28.477M29.5359 29.9514H29.5435C30.4257 29.9514 31.0082 29.2286 31.0063 28.4769M29.5359 29.9514C30.42 29.9514 31.0043 29.2296 31.0063 28.4769M29.2934 23.5323L29.492 25.244C29.5493 25.738 29.706 26.2115 29.9488 26.6377M18.7129 23.5323L18.5143 25.244C18.4569 25.738 18.3003 26.2115 18.0574 26.6376M29.9488 26.6377C29.7068 26.2048 29.5538 25.7239 29.5033 25.2233L29.1198 21.4254C28.8544 18.7972 26.642 16.7969 24.0004 16.7969M29.9488 26.6377C30.1152 26.9352 30.3235 27.21 30.5695 27.453C30.8701 27.7501 31.0053 28.1168 31.0063 28.4769M29.9488 26.6377C30.1151 26.9294 30.3217 27.1989 30.5645 27.4375C30.8708 27.7385 31.0072 28.1114 31.0063 28.4769M18.0574 26.6376C17.8912 26.9293 17.6845 27.1988 17.4417 27.4375C17.1355 27.7385 16.999 28.1114 17 28.477M18.0574 26.6376C18.2994 26.2048 18.4525 25.7239 18.503 25.2233L18.8865 21.4254C19.1518 18.7972 21.3643 16.7969 24.0059 16.7969M18.0574 26.6376C17.8911 26.9351 17.6828 27.21 17.4368 27.453C17.1361 27.7501 17.001 28.1168 17 28.477" stroke="#006B40" stroke-width="1.5" stroke-linecap="round" stroke-linejoin="round"/>
<path d="M24.0156 15L24.0156 16.7964" stroke="#006B40" stroke-width="1.5" stroke-linecap="round" stroke-linejoin="round"/>
<path d="M26.3375 29.9512C26.3375 30.3723 26.2254 30.7672 26.0296 31.1077C25.6286 31.8048 24.8763 32.2742 24.0144 32.2742C23.1526 32.2742 22.4003 31.8048 21.9993 31.1077C21.8034 30.7672 21.6914 30.3723 21.6914 29.9512" stroke="#006B40" stroke-width="1.5" stroke-linecap="round" stroke-linejoin="round"/>
</svg>
