<svg width="36" height="36" viewBox="0 0 36 36" fill="none" xmlns="http://www.w3.org/2000/svg">
<path d="M18 3C23.799 3 28.5 7.70101 28.5 13.5C28.5 21.2683 20.3158 25.8426 18.3984 26.8076C18.144 26.9356 17.856 26.9356 17.6016 26.8076C15.6842 25.8426 7.5 21.2683 7.5 13.5C7.5 7.70101 12.201 3 18 3ZM18 9C15.5147 9 13.5 11.0147 13.5 13.5C13.5 15.9853 15.5147 18 18 18C20.4853 18 22.5 15.9853 22.5 13.5C22.5 11.0147 20.4853 9 18 9Z" fill="#519FE9"/>
<path d="M27.0933 24.75C28.0148 25.4341 28.5 26.2101 28.5 27C28.5 27.7899 28.0148 28.5659 27.0933 29.25C26.1717 29.9341 24.8462 30.5022 23.25 30.8971C21.6538 31.2921 19.8431 31.5 18 31.5C16.1569 31.5 14.3462 31.2921 12.75 30.8971C11.1538 30.5022 9.8283 29.9341 8.90673 29.25C7.98517 28.5659 7.5 27.7899 7.5 27C7.5 26.2101 7.98517 25.4341 8.90673 24.75" stroke="#979797" stroke-width="2" stroke-linecap="round"/>
</svg>
