<svg width="36" height="36" viewBox="0 0 36 36" fill="none" xmlns="http://www.w3.org/2000/svg">
<path d="M24 12V10.5C24 9.57099 24 9.10649 23.9384 8.71783C23.5996 6.57837 21.9216 4.90042 19.7822 4.56156C19.3935 4.5 18.929 4.5 18 4.5C17.071 4.5 16.6065 4.5 16.2178 4.56156C14.0784 4.90042 12.4004 6.57837 12.0616 8.71783C12 9.10649 12 9.57099 12 10.5V12" stroke="#36459D" stroke-width="2" stroke-linecap="round"/>
<path d="M25.5 10.5C28.3284 10.5 29.7424 10.5002 30.6211 11.3789C31.4998 12.2576 31.5 13.6716 31.5 16.5V25C31.5 28.7712 31.4997 30.6566 30.3281 31.8281C29.1566 32.9997 27.2712 33 23.5 33H12.5C8.72876 33 6.84345 32.9997 5.67188 31.8281C4.5003 30.6566 4.5 28.7712 4.5 25V16.5C4.5 13.6716 4.50023 12.2576 5.37891 11.3789C6.25759 10.5002 7.67157 10.5 10.5 10.5H25.5ZM18 16.5C15.5147 16.5 13.5 18.5147 13.5 21C13.5 23.1415 14.9962 24.9318 17 25.3867V28.5H19V25.3867C21.0038 24.9318 22.5 23.1415 22.5 21C22.5 18.5147 20.4853 16.5 18 16.5ZM18 18.5C19.3807 18.5 20.5 19.6193 20.5 21C20.5 22.3807 19.3807 23.5 18 23.5C16.6193 23.5 15.5 22.3807 15.5 21C15.5 19.6193 16.6193 18.5 18 18.5Z" fill="#36459D"/>
</svg>
