<svg width="30" height="30" viewBox="0 0 30 30" fill="none" xmlns="http://www.w3.org/2000/svg">
<path d="M11.5625 27.5L11.0625 23.5C10.7917 23.3958 10.5363 23.2708 10.2962 23.125C10.0563 22.9792 9.82208 22.8229 9.59375 22.6562L5.875 24.2187L2.4375 18.2812L5.65625 15.8437C5.63542 15.6979 5.625 15.5571 5.625 15.4212V14.5787C5.625 14.4429 5.63542 14.3021 5.65625 14.1562L2.4375 11.7187L5.875 5.78125L9.59375 7.34375C9.82292 7.17708 10.0625 7.02083 10.3125 6.875C10.5625 6.72917 10.8125 6.60417 11.0625 6.5L11.5625 2.5H18.4375L18.9375 6.5C19.2083 6.60417 19.4637 6.72917 19.7037 6.875C19.9437 7.02083 20.1779 7.17708 20.4062 7.34375L24.125 5.78125L27.5625 11.7187L24.3437 14.1562C24.3646 14.3021 24.375 14.4429 24.375 14.5787V15.4212C24.375 15.5571 24.3542 15.6979 24.3125 15.8437L27.5312 18.2812L24.0937 24.2187L20.4062 22.6562C20.1771 22.8229 19.9375 22.9792 19.6875 23.125C19.4375 23.2708 19.1875 23.3958 18.9375 23.5L18.4375 27.5H11.5625ZM15.0625 19.375C16.2708 19.375 17.3021 18.9479 18.1562 18.0937C19.0104 17.2396 19.4375 16.2083 19.4375 15C19.4375 13.7917 19.0104 12.7604 18.1562 11.9062C17.3021 11.0521 16.2708 10.625 15.0625 10.625C13.8333 10.625 12.7967 11.0521 11.9525 11.9062C11.1083 12.7604 10.6867 13.7917 10.6875 15C10.6875 16.2083 11.1092 17.2396 11.9525 18.0937C12.7958 18.9479 13.8325 19.375 15.0625 19.375ZM15.0625 16.875C14.5417 16.875 14.0988 16.6925 13.7337 16.3275C13.3687 15.9625 13.1867 15.52 13.1875 15C13.1875 14.4792 13.37 14.0362 13.735 13.6712C14.1 13.3062 14.5425 13.1242 15.0625 13.125C15.5833 13.125 16.0262 13.3075 16.3912 13.6725C16.7562 14.0375 16.9383 14.48 16.9375 15C16.9375 15.5208 16.755 15.9637 16.39 16.3287C16.025 16.6937 15.5825 16.8758 15.0625 16.875ZM13.75 25H16.2187L16.6562 21.6875C17.3021 21.5208 17.9012 21.2758 18.4537 20.9525C19.0062 20.6292 19.5112 20.2387 19.9687 19.7812L23.0625 21.0625L24.2812 18.9375L21.5937 16.9062C21.6979 16.6146 21.7708 16.3075 21.8125 15.985C21.8542 15.6625 21.875 15.3342 21.875 15C21.875 14.6667 21.8542 14.3387 21.8125 14.0162C21.7708 13.6937 21.6979 13.3862 21.5937 13.0937L24.2812 11.0625L23.0625 8.9375L19.9687 10.25C19.5104 9.77083 19.0054 9.37 18.4537 9.0475C17.9021 8.725 17.3029 8.48 16.6562 8.3125L16.25 5H13.7812L13.3437 8.3125C12.6979 8.47917 12.0992 8.72417 11.5475 9.0475C10.9958 9.37083 10.4904 9.76125 10.0312 10.2187L6.9375 8.9375L5.71875 11.0625L8.40625 13.0625C8.30208 13.375 8.22917 13.6875 8.1875 14C8.14583 14.3125 8.125 14.6458 8.125 15C8.125 15.3333 8.14583 15.6562 8.1875 15.9687C8.22917 16.2812 8.30208 16.5937 8.40625 16.9062L5.71875 18.9375L6.9375 21.0625L10.0312 19.75C10.4896 20.2292 10.995 20.6304 11.5475 20.9537C12.1 21.2771 12.6987 21.5217 13.3437 21.6875L13.75 25Z" fill="black"/>
</svg>
