<svg width="30" height="30" viewBox="0 0 30 30" fill="none" xmlns="http://www.w3.org/2000/svg">
<path d="M9.55 12.5C9.45 13.325 9.375 14.15 9.375 15C9.375 15.85 9.45 16.675 9.55 17.5H5.325C5.125 16.7 5 15.8625 5 15C5 14.1375 5.125 13.3 5.325 12.5M11.7625 5.55C11.0125 6.9375 10.4375 8.4375 10.0375 10H6.35C7.56104 7.91466 9.48236 6.335 11.7625 5.55ZM12.075 12.5H17.925C18.05 13.325 18.125 14.15 18.125 15C18.125 15.85 18.05 16.6875 17.925 17.5H12.075C11.9625 16.6875 11.875 15.85 11.875 15C11.875 14.15 11.9625 13.325 12.075 12.5ZM15 5.05C16.0375 6.55 16.875 8.2125 17.3875 10H12.6125C13.125 8.2125 13.9625 6.55 15 5.05ZM20 20H23.65C22.4514 22.091 20.5315 23.6731 18.25 24.45C19 23.0625 19.5625 21.5625 20 20ZM23.65 10H20C19.5625 8.4375 19 6.9375 18.25 5.55C20.5267 6.33542 22.4439 7.91535 23.65 10ZM24.675 12.5C24.875 13.3 25 14.1375 25 15C25 15.8625 24.875 16.7 24.675 17.5H20.45C20.55 16.675 20.625 15.85 20.625 15C20.625 14.15 20.55 13.325 20.45 12.5M15 24.9625C13.9625 23.4625 13.125 21.7875 12.6125 20H17.3875C16.875 21.7875 16.0375 23.4625 15 24.9625ZM6.35 20H10.0375C10.4287 21.5482 11.008 23.0426 11.7625 24.45C9.4625 23.6625 7.55 22.075 6.35 20ZM15 27.5C21.9125 27.5 27.5 21.875 27.5 15C27.5 11.6848 26.183 8.50537 23.8388 6.16117C22.6781 5.00043 21.3001 4.07969 19.7835 3.4515C18.267 2.82332 16.6415 2.5 15 2.5C11.6848 2.5 8.50537 3.81696 6.16117 6.16117C3.81696 8.50537 2.5 11.6848 2.5 15C2.5 16.6415 2.82332 18.267 3.4515 19.7835C4.07969 21.3001 5.00043 22.6781 6.16117 23.8388C7.3219 24.9996 8.69989 25.9203 10.2165 26.5485C11.733 27.1767 13.3585 27.5 15 27.5Z" fill="black"/>
</svg>
