<svg width="36" height="36" viewBox="0 0 36 36" fill="none" xmlns="http://www.w3.org/2000/svg">
<path d="M33 10.7623L30.885 8.64732L26.61 13.4623C23.52 9.98232 19.245 7.88232 14.415 7.88232C10.08 7.88232 6.105 9.62232 3 12.3823L5.13 14.5123C7.68 12.2773 10.905 10.8823 14.415 10.8823C18.525 10.8823 22.05 12.7723 24.57 15.7423L20.25 20.6023L14.25 14.6023L3 25.8673L5.25 28.1173L14.25 19.1023L20.25 25.1023L26.325 18.2773C27.45 20.3023 28.2 22.6273 28.485 25.1023H31.5C31.17 21.6523 30.075 18.5173 28.44 15.8923L33 10.7623Z" fill="black"/>
</svg>
