<svg width="36" height="36" viewBox="0 0 36 36" fill="none" xmlns="http://www.w3.org/2000/svg">
<path d="M28.38 13.515C28.08 12.63 27.24 12 26.25 12H9.75C8.76 12 7.935 12.63 7.62 13.515L4.5 22.5V34.5C4.5 35.325 5.175 36 6 36H7.5C8.325 36 9 35.325 9 34.5V33H27V34.5C27 35.325 27.675 36 28.5 36H30C30.825 36 31.5 35.325 31.5 34.5V22.5L28.38 13.515ZM10.275 15H25.71L27.27 19.5H8.715L10.275 15ZM28.5 30H7.5V22.5H28.5V30ZM9 26.25C9 25.005 10.005 24 11.25 24C12.495 24 13.5 25.005 13.5 26.25C13.5 27.495 12.495 28.5 11.25 28.5C10.005 28.5 9 27.495 9 26.25ZM22.5 26.25C22.5 25.005 23.505 24 24.75 24C25.995 24 27 25.005 27 26.25C27 27.495 25.995 28.5 24.75 28.5C23.505 28.5 22.5 27.495 22.5 26.25ZM18 9.54L13.755 5.31L15.87 3.195L18 5.31L23.31 0L25.425 2.115L18 9.54Z" fill="black"/>
</svg>
