<svg width="106" height="134" viewBox="0 0 106 134" fill="none" xmlns="http://www.w3.org/2000/svg">
<ellipse cx="52.7064" cy="121.173" rx="52.7064" ry="12.2093" fill="#F2F1F9"/>
<path d="M80.1183 70.7615L50.7395 70.6512C47.2058 70.6382 44.355 68.2869 44.3682 65.3992L44.6806 5.2088C44.6964 2.3189 47.5737 -0.0129247 51.1101 5.39159e-05L80.4888 0.110372C84.0226 0.12335 86.8733 2.47464 86.8601 5.36237L86.5478 65.5528C86.5345 68.4427 83.6546 70.7745 80.1183 70.7615Z" fill="#3629B7"/>
<path d="M80.4459 2.18902L74.7496 2.16739C73.9846 2.16523 73.3626 2.69086 73.3599 3.34412L73.3546 4.18773C73.352 4.84098 72.7299 5.36662 71.965 5.36445L60.8609 5.32335C60.0959 5.32119 59.4818 4.78907 59.4845 4.13581L59.4898 3.2922C59.4924 2.63895 58.8757 2.10899 58.1133 2.10466L56.1096 2.09601L51.1253 2.07654C48.6504 2.06789 46.6334 3.70103 46.6228 5.72353L46.3184 64.4733C46.3078 66.4958 48.3036 68.1419 50.7786 68.1506L80.0991 68.2609C82.574 68.2695 84.591 66.6364 84.6016 64.6139L84.906 5.86413C84.9193 3.84379 82.9208 2.19768 80.4459 2.18902Z" fill="white"/>
<path d="M81.548 32.828L78.0358 27.5246H78.0341C77.6974 26.9497 76.7622 26.5356 75.6585 26.5356C74.4342 26.5356 73.4161 27.0447 73.1937 27.7181L72.9541 27.7278V33.2229L73.5102 32.7934L74.1249 33.268H74.2428L74.8576 32.7934L75.4721 33.268H75.5899L76.2045 32.7934L76.8192 33.268H76.9371L77.5518 32.7934L78.1666 33.268H78.2842L78.899 32.7934L79.5137 33.268H79.6316L80.2461 32.7934L80.8609 33.268H80.9787L81.548 32.828Z" fill="#BABCBE"/>
<path d="M73.0932 26.5356H72.084H60.7844C59.4077 26.5356 58.2912 27.1794 58.2749 27.9769C58.2749 27.9828 58.2734 27.9884 58.2734 27.9942C58.2734 28.0001 58.2749 28.0057 58.2749 28.0116V51.621H67.9769C68.5255 51.933 69.2757 52.1259 70.104 52.1259C70.9324 52.1259 71.6823 51.933 72.2312 51.621C73.0374 51.1624 73.0932 50.6496 73.0932 50.0354L73.1463 27.9942C73.1463 27.1886 74.2705 26.5356 75.6573 26.5356H73.0932Z" fill="#FF4267"/>
<path d="M67.2558 50.4147C67.2558 50.2492 67.2979 50.0897 67.371 49.9378H67.2558L56.0527 50.9477L56.6329 51.4112C57.2392 51.8954 58.2078 52.182 59.2386 52.182H70.2979C68.6179 52.182 67.2558 51.3908 67.2558 50.4147Z" fill="#BABCBE"/>
<path d="M71.7561 32.3455H59.5801V32.6002H71.7561V32.3455Z" fill="#D2CFCA"/>
<path d="M71.7561 33.8407H59.5801V34.0954H71.7561V33.8407Z" fill="#D2CFCA"/>
<path d="M71.7561 35.3355H59.5801V35.5902H71.7561V35.3355Z" fill="#D2CFCA"/>
<path d="M71.7561 36.8307H59.5801V37.0855H71.7561V36.8307Z" fill="#D2CFCA"/>
<path d="M71.7561 38.3259H59.5801V38.5806H71.7561V38.3259Z" fill="#D2CFCA"/>
<path d="M71.7561 39.8211H59.5801V40.0758H71.7561V39.8211Z" fill="#D2CFCA"/>
<path d="M71.7561 41.5137H59.5801V41.7684H71.7561V41.5137Z" fill="#D2CFCA"/>
<path d="M71.7561 43.2072H59.5801V43.4619H71.7561V43.2072Z" fill="#D2CFCA"/>
<path d="M71.7561 44.8998H59.5801V45.1545H71.7561V44.8998Z" fill="#D2CFCA"/>
<path d="M71.7561 30.7034H59.5801V30.9581H71.7561V30.7034Z" fill="#D2CFCA"/>
<rect x="53.5635" y="114.368" width="31.815" height="6.83409" rx="3.41704" fill="#FFAF2A"/>
<path d="M65.1645 117.012C65.1645 117.161 65.1285 117.301 65.0565 117.432C64.9872 117.563 64.8765 117.668 64.7245 117.748C64.5752 117.828 64.3859 117.868 64.1565 117.868H63.6885V118.94H63.1285V116.148H64.1565C64.3725 116.148 64.5565 116.185 64.7085 116.26C64.8605 116.335 64.9739 116.437 65.0485 116.568C65.1259 116.699 65.1645 116.847 65.1645 117.012ZM64.1325 117.416C64.2872 117.416 64.4019 117.381 64.4765 117.312C64.5512 117.24 64.5885 117.14 64.5885 117.012C64.5885 116.74 64.4365 116.604 64.1325 116.604H63.6885V117.416H64.1325ZM65.4181 117.824C65.4181 117.6 65.4621 117.401 65.5501 117.228C65.6408 117.055 65.7621 116.921 65.9141 116.828C66.0688 116.735 66.2408 116.688 66.4301 116.688C66.5955 116.688 66.7395 116.721 66.8621 116.788C66.9875 116.855 67.0875 116.939 67.1621 117.04V116.724H67.7261V118.94H67.1621V118.616C67.0901 118.72 66.9901 118.807 66.8621 118.876C66.7368 118.943 66.5915 118.976 66.4261 118.976C66.2395 118.976 66.0688 118.928 65.9141 118.832C65.7621 118.736 65.6408 118.601 65.5501 118.428C65.4621 118.252 65.4181 118.051 65.4181 117.824ZM67.1621 117.832C67.1621 117.696 67.1355 117.58 67.0821 117.484C67.0288 117.385 66.9568 117.311 66.8661 117.26C66.7755 117.207 66.6781 117.18 66.5741 117.18C66.4701 117.18 66.3741 117.205 66.2861 117.256C66.1981 117.307 66.1261 117.381 66.0701 117.48C66.0168 117.576 65.9901 117.691 65.9901 117.824C65.9901 117.957 66.0168 118.075 66.0701 118.176C66.1261 118.275 66.1981 118.351 66.2861 118.404C66.3768 118.457 66.4728 118.484 66.5741 118.484C66.6781 118.484 66.7755 118.459 66.8661 118.408C66.9568 118.355 67.0288 118.28 67.0821 118.184C67.1355 118.085 67.1621 117.968 67.1621 117.832ZM70.3931 116.724L69.0211 119.988H68.4251L68.9051 118.884L68.0171 116.724H68.6451L69.2171 118.272L69.7971 116.724H70.3931Z" fill="white"/>
<g opacity="0.75">
<path opacity="0.75" d="M42.1995 62.3246H4.42969V42.3174C4.42969 41.5945 5.13359 41.0084 6.00181 41.0084H40.6274C41.4956 41.0084 42.1995 41.5945 42.1995 42.3174V62.3246Z" fill="#B0BEC5"/>
<path opacity="0.75" d="M42.6754 64.0884H3.9536C3.01861 64.0884 2.26074 63.4574 2.26074 62.6788V62.3245H44.3682V62.6788C44.3682 63.4572 43.6104 64.0884 42.6754 64.0884Z" fill="#B0BEC5"/>
<path opacity="0.75" d="M40.4029 42.6595H5.51758V60.6732H40.4029V42.6595Z" fill="#B0BEC5"/>
<path opacity="0.75" d="M27.5853 63.2065H19.0432C18.5237 63.2065 18.1025 62.8558 18.1025 62.4232V62.3245H28.5259V62.4232C28.5259 62.8558 28.1047 63.2065 27.5853 63.2065Z" fill="#B0BEC5"/>
</g>
<path d="M41.8148 62.0041H4.04492V41.9969C4.04492 41.274 4.74883 40.6879 5.61705 40.6879H40.2427C41.1109 40.6879 41.8148 41.274 41.8148 41.9969V62.0041Z" fill="#3629B7"/>
<path d="M42.2906 63.768H3.56884C2.63384 63.768 1.87598 63.1369 1.87598 62.3584V62.0041H43.9835V62.3584C43.9835 63.1368 43.2256 63.768 42.2906 63.768Z" fill="#ECEFF1"/>
<path d="M40.0161 42.3391H5.13086V60.3528H40.0161V42.3391Z" fill="white"/>
<path d="M27.2005 62.886H18.6584C18.1389 62.886 17.7178 62.5353 17.7178 62.1028V62.0041H28.1411V62.1028C28.1411 62.5353 27.72 62.886 27.2005 62.886Z" fill="#B0BEC5"/>
<path d="M30.3085 52.9863C29.1831 56.7791 24.5783 59.0948 20.022 58.1575C19.3996 58.0294 18.8103 57.8474 18.2595 57.6184C17.5669 57.3311 16.9353 56.9695 16.3756 56.5495C15.8759 56.1746 15.4336 55.7525 15.0561 55.2946C14.9406 55.1547 14.8312 55.0113 14.7285 54.8647C14.2758 54.2214 13.9444 53.5189 13.7532 52.7826C13.7157 52.6387 13.6834 52.4938 13.6571 52.3478C13.4943 51.4559 13.5354 50.5229 13.8115 49.5928C13.8367 49.5078 13.864 49.4232 13.8938 49.3391C15.1442 45.6972 19.6451 43.5056 24.0979 44.4215C25.1938 44.6469 26.1868 45.04 27.0474 45.5595C27.2136 45.66 27.375 45.7649 27.5311 45.8748C28.2136 46.3534 28.7973 46.9166 29.2649 47.5397C29.368 47.6771 29.4653 47.8171 29.557 47.96C29.8828 48.4683 30.1349 49.0099 30.3046 49.5734C30.4796 50.1544 30.567 50.7585 30.5576 51.3728C30.5507 51.8214 30.4922 52.2754 30.3779 52.7299C30.3572 52.816 30.3337 52.9015 30.3085 52.9863Z" fill="#FDD462"/>
<path d="M28.6525 52.6621C28.6274 52.7463 28.5998 52.83 28.5713 52.9127C27.5487 55.7905 23.9651 57.5221 20.4309 56.7952C16.8967 56.0682 14.6941 53.1463 15.3986 50.203C15.4196 50.1187 15.4419 50.0339 15.467 49.9497C16.3651 46.9228 20.0532 45.0688 23.6886 45.8166C27.3239 46.5643 29.5507 49.6351 28.6525 52.6621Z" fill="#F37E00"/>
<path d="M28.5721 52.9121C27.5495 55.7899 23.9659 57.5216 20.4317 56.7946C20.3525 56.7784 20.2749 56.7607 20.1973 56.7423C19.4158 56.5571 18.7035 56.2635 18.0778 55.8854C17.4522 55.5072 16.9137 55.0454 16.4809 54.524C16.3708 54.3917 16.2677 54.2559 16.1707 54.1156C15.7331 53.4786 15.4412 52.7717 15.326 52.0313C15.2976 51.8541 15.2798 51.674 15.2727 51.4938C15.2545 51.0682 15.296 50.6355 15.3992 50.2025C16.422 47.3248 20.0056 45.5923 23.5398 46.3193C23.9868 46.4113 24.4126 46.5387 24.8147 46.697C25.0193 46.7772 25.2184 46.8662 25.4104 46.9626C26.1946 47.3555 26.8648 47.8729 27.3919 48.4746C27.5056 48.6045 27.6132 48.7388 27.7136 48.8772C28.1042 49.4127 28.389 50.002 28.55 50.6209C28.7066 51.2244 28.746 51.855 28.6527 52.4917C28.633 52.6313 28.6058 52.772 28.5721 52.9121Z" fill="#F7A219"/>
<path d="M22.0521 54.6081L21.7816 55.5201L20.3902 55.234L20.6486 54.363C19.6763 54.1108 18.7851 53.692 18.2832 53.2662L19.4525 52.0072C20.0087 52.4615 20.8161 52.8456 21.5759 53.0019C22.2371 53.1379 22.5081 53.0716 22.5666 52.8744C22.7812 52.1514 18.7892 51.9492 19.4255 49.8047C19.7009 48.8762 20.7417 48.2622 22.4161 48.406L22.6819 47.5105L24.0733 47.7967L23.8125 48.6758C24.5257 48.8835 25.1898 49.1858 25.6743 49.5644L24.5568 50.8252C23.9611 50.3976 23.3612 50.126 22.7592 50.0021C22.0783 49.8621 21.8125 49.9818 21.7539 50.1789C21.5492 50.8691 25.5387 51.0795 24.9097 53.1992C24.6464 54.087 23.6475 54.7009 22.0521 54.6081Z" fill="#F37E00"/>
<path d="M22.101 54.2968L21.8304 55.2088L20.439 54.9226L20.6974 54.0517C19.7251 53.7994 18.8339 53.3807 18.332 52.9548L19.5013 51.6958C20.0575 52.1503 20.8649 52.5343 21.6248 52.6905C22.2859 52.8266 22.5569 52.7602 22.6154 52.5631C22.83 51.8401 18.8381 51.6379 19.4743 49.4934C19.7497 48.565 20.7905 47.9509 22.465 48.0948L22.7307 47.1993L24.1222 47.4855L23.8613 48.3646C24.5745 48.5723 25.2386 48.8746 25.7231 49.2532L24.6056 50.5141C24.0101 50.0865 23.41 49.8149 22.8081 49.6911C22.1271 49.551 21.8613 49.6707 21.8028 49.8678C21.598 50.558 25.5875 50.7684 24.9585 52.8883C24.6952 53.7756 23.6964 54.3896 22.101 54.2968Z" fill="#FDD462"/>
</svg>
