<svg width="33" height="33" viewBox="0 0 33 33" fill="none" xmlns="http://www.w3.org/2000/svg">
<path d="M24.4884 21.3943V14.6025C24.4884 10.4323 22.2572 6.94127 18.3663 6.01758V5.09389C18.3663 3.96644 17.4548 3.05634 16.3256 3.05634C15.1964 3.05634 14.2849 3.96644 14.2849 5.09389V6.01758C10.3804 6.94127 8.16282 10.4187 8.16282 14.6025V21.3943L5.44189 24.1111V25.4694H27.2093V24.1111L24.4884 21.3943ZM17.6861 21.3943H14.9651V18.6776H17.6861V21.3943ZM17.6861 15.9608H14.9651V10.5274H17.6861V15.9608ZM16.3256 29.5445C17.8221 29.5445 19.0465 28.322 19.0465 26.8278H13.6047C13.6047 28.322 14.8155 29.5445 16.3256 29.5445Z" fill="#F8364E"/>
</svg>
