<svg width="19" height="32" viewBox="0 0 19 32" fill="none" xmlns="http://www.w3.org/2000/svg">
<path d="M15.3409 2.54681L15.2515 2.49426L12.4752 0.878315C11.8305 0.44268 11.0835 0.231384 10.3319 0.272046C9.3838 0.307875 8.44135 0.724232 7.34093 1.46062C3.49526 4.02376 0.394937 11.1126 0.56768 15.6835L0.615289 16.9433C0.824642 22.483 7.66339 28.9962 7.66339 28.9962L10.4591 30.6383C10.4604 30.6403 10.4623 30.6418 10.4644 30.6427C10.4665 30.6435 10.4687 30.6437 10.4709 30.6432C10.3752 30.5274 13.1844 25.5835 15.6531 16.0534C18.3776 5.50056 15.4014 2.60475 15.3409 2.54681ZM11.3594 19.2842C9.18134 20.7938 7.28705 20.1179 6.67128 17.8384C5.64356 17.7213 4.87221 16.8793 4.59018 15.4594C4.12939 10.852 6.20507 7.09634 9.32001 5.48578C10.6579 4.88776 11.8061 5.23479 12.4562 6.34169C14.306 5.91686 15.6928 7.27986 15.7933 9.94124C15.9208 13.3136 13.9333 17.4994 11.3594 19.2842Z" fill="#455A64"/>
<path d="M15.7934 9.94157C15.9208 13.3139 13.9362 17.4996 11.3594 19.2845C9.18135 20.7941 7.28706 20.1182 6.67129 17.8387C7.3459 17.9208 8.13024 17.6922 8.9607 17.1155C11.3206 15.4808 13.1369 11.6499 13.0203 8.5632C12.9856 7.646 12.7843 6.8975 12.4563 6.34201C14.306 5.91718 15.6928 7.28018 15.7934 9.94157Z" fill="#263238"/>
<path d="M7.56162 17.482L9.11501 18.3945L8.99211 15.1424L7.43872 14.2299L7.56162 17.482Z" fill="#FFCBBD"/>
<path opacity="0.2" d="M7.56162 17.482L9.11501 18.3945L8.99211 15.1424L7.43872 14.2299L7.56162 17.482Z" fill="#FFF4E6"/>
<path d="M14.5753 11.2703L10.9906 9.57948L7.71359 16.0296L8.99198 15.1424L9.11488 18.3945L10.7361 17.2706L10.6557 15.143L11.7173 14.407L11.7976 16.5335L13.4207 15.4074L13.2978 12.1553L14.5753 11.2703Z" fill="#FFCBBD"/>
<path d="M9.43642 8.66688L10.9908 9.57935L7.71375 16.0295L6.15939 15.117L9.43642 8.66688Z" fill="#FFCBBD"/>
<path opacity="0.1" d="M9.43642 8.66688L10.9908 9.57935L7.71375 16.0295L6.15939 15.117L9.43642 8.66688Z" fill="#FFF4E6"/>
<path d="M9.43628 8.66693L10.9906 9.5794L14.5753 11.2702L13.021 10.3577L9.43628 8.66693Z" fill="#FFCBBD"/>
<path opacity="0.4" d="M9.43628 8.66693L10.9906 9.5794L14.5753 11.2702L13.021 10.3577L9.43628 8.66693Z" fill="white"/>
<path d="M10.7361 17.2707L11.7976 16.5336L11.7172 14.4071L10.6557 15.1431L10.7361 17.2707Z" fill="#FFCBBD"/>
<path opacity="0.2" d="M10.7361 17.2707L11.7976 16.5336L11.7172 14.4071L10.6557 15.1431L10.7361 17.2707Z" fill="#FFF4E6"/>
<path d="M15.341 2.54664L15.2515 2.49409C13.9048 1.72543 12.1505 1.90143 10.2651 3.2074C7.42427 5.18082 5.04912 9.18984 4.01159 13.3387C3.59952 14.9837 3.43217 15.8526 3.49163 17.426L3.5394 18.6901C3.70074 22.9593 8.21859 28.5395 10.3077 30.5137C10.3544 30.5582 10.4051 30.5974 10.4589 30.6306C10.4602 30.6326 10.4621 30.6341 10.4642 30.635C10.4663 30.6359 10.4685 30.6361 10.4707 30.6355C10.5912 30.7114 10.7245 30.7586 10.862 30.774C10.9995 30.7895 11.1382 30.773 11.2692 30.7255C11.4002 30.678 11.5205 30.6006 11.6224 30.4982C11.7243 30.3959 11.8055 30.2709 11.8608 30.1313C13.4455 26.1381 18.0518 14.1063 17.8783 9.51489L17.8307 8.25508C17.7231 5.40897 16.7775 3.42592 15.341 2.54664ZM6.67135 17.8382C6.63976 17.7222 6.6099 17.6007 6.58574 17.4758C6.51547 17.1257 6.47468 16.7693 6.46388 16.4113C6.33644 13.0389 8.31624 8.85449 10.8979 7.06941C11.1701 6.88006 11.4565 6.71668 11.754 6.58102C11.9813 6.47731 12.2166 6.39643 12.4572 6.33934C14.307 5.91451 15.6937 7.27751 15.7943 9.93889C15.9217 13.3113 13.9371 17.497 11.3604 19.2819C9.18432 20.7935 7.28712 20.1177 6.67135 17.8382Z" fill="#37474F"/>
</svg>
