<svg width="26" height="24" viewBox="0 0 26 24" fill="none" xmlns="http://www.w3.org/2000/svg">
<path d="M13.0001 4C15.0909 4 18.4167 5.4 18.4167 9.15C18.4167 11.31 16.5534 13.82 13.0001 16.47C9.44675 13.82 7.58341 11.3 7.58341 9.15C7.58341 5.4 10.9092 4 13.0001 4ZM13.0001 2C9.45758 2 5.41675 4.46 5.41675 9.15C5.41675 12.27 7.94091 15.56 13.0001 19C18.0592 15.56 20.5834 12.27 20.5834 9.15C20.5834 4.46 16.5426 2 13.0001 2Z" fill="white"/>
<path d="M13.0001 7C11.8084 7 10.8334 7.9 10.8334 9C10.8334 10.1 11.8084 11 13.0001 11C13.5747 11 14.1258 10.7893 14.5321 10.4142C14.9385 10.0391 15.1667 9.53043 15.1667 9C15.1667 8.46957 14.9385 7.96086 14.5321 7.58579C14.1258 7.21071 13.5747 7 13.0001 7ZM5.41675 20H20.5834V22H5.41675V20Z" fill="white"/>
</svg>
