<svg width="36" height="36" viewBox="0 0 36 36" fill="none" xmlns="http://www.w3.org/2000/svg">
<path d="M28.9181 7.3949L25.7381 4.2149C24.5681 3.0449 22.6631 3.0449 21.4931 4.2149L17.2481 8.4599L20.4281 11.6399L23.6081 8.4599L28.9181 13.7699C30.6731 11.9999 30.6731 9.1499 28.9181 7.3949Z" fill="black"/>
<path d="M8.23312 20.6549C9.11812 21.5399 10.5431 21.5399 11.4131 20.6549L15.1181 16.9499L11.9381 13.7549L8.23312 17.4599C7.34812 18.3449 7.34812 19.7699 8.23312 20.6549Z" fill="black"/>
<path d="M22.5581 11.6399L20.4281 13.7699L15.6581 8.9999C14.7731 8.0999 13.3481 8.0999 12.4781 8.9849C11.5931 9.8699 11.5931 11.2949 12.4781 12.1649L17.2481 16.9349L6.64312 27.5399C5.47313 28.7099 5.47313 30.6149 6.64312 31.7849C7.81312 32.9549 9.71813 32.9549 10.8881 31.7849L24.6731 17.9999C25.2581 18.5849 26.2031 18.5849 26.7881 17.9999C27.3731 17.4149 27.3731 16.4699 26.7881 15.8849L22.5581 11.6399Z" fill="black"/>
</svg>
