<svg width="106" height="122" viewBox="0 0 106 122" fill="none" xmlns="http://www.w3.org/2000/svg">
<ellipse cx="52.7064" cy="110.349" rx="52.7064" ry="10.7582" fill="#F2F1F9"/>
<path d="M70.7456 68.5865L42.0848 68.4795C38.6374 68.467 35.8563 66.1879 35.8692 63.389L36.1739 5.04869C36.1894 2.24762 38.9963 -0.0125274 42.4463 5.22586e-05L71.1071 0.106979C74.5545 0.119559 77.3356 2.39857 77.3227 5.19755L77.018 63.5378C77.0051 66.3389 74.1956 68.599 70.7456 68.5865Z" fill="#3629B7"/>
<path d="M71.065 2.12175L65.5079 2.10079C64.7616 2.09869 64.1548 2.60817 64.1522 3.24134L64.1471 4.05902C64.1445 4.6922 63.5376 5.20167 62.7913 5.19958L51.9586 5.15974C51.2124 5.15764 50.6133 4.64188 50.6158 4.0087L50.621 3.19102C50.6236 2.55785 50.0219 2.04418 49.2782 2.03998L47.3234 2.0316L42.461 2.01273C40.0465 2.00434 38.0788 3.58728 38.0685 5.54761L37.7715 62.4915C37.7612 64.4519 39.7082 66.0474 42.1227 66.0558L70.7267 66.1627C73.1412 66.1711 75.1089 64.5882 75.1192 62.6278L75.4162 5.68389C75.4291 3.72566 73.4795 2.13014 71.065 2.12175Z" fill="white"/>
<path d="M30.7616 68.7599L13.1343 68.6942C11.0141 68.6864 9.30361 67.2848 9.31155 65.5633L9.49896 29.6823C9.50849 27.9596 11.2348 26.5695 13.3567 26.5773L30.9839 26.643C33.1042 26.6508 34.8146 28.0524 34.8067 29.7739L34.6193 65.6549C34.6113 67.3776 32.8834 68.7677 30.7616 68.7599Z" fill="#3629B7"/>
<path d="M30.9579 27.8824L27.5402 27.8695C27.0812 27.8682 26.708 28.1815 26.7064 28.5709L26.7032 29.0738C26.7016 29.4632 26.3284 29.7766 25.8694 29.7753L19.207 29.7508C18.748 29.7495 18.3795 29.4323 18.3811 29.0429L18.3843 28.54C18.3859 28.1506 18.0158 27.8346 17.5584 27.8321L16.3562 27.8269L13.3656 27.8153C11.8807 27.8101 10.6705 28.7837 10.6641 29.9894L10.4815 65.0116C10.4751 66.2172 11.6726 67.1985 13.1576 67.2037L30.7499 67.2694C32.2349 67.2746 33.445 66.301 33.4514 65.0954L33.634 30.0732C33.642 28.8688 32.4429 27.8875 30.9579 27.8824Z" fill="white"/>
<rect x="41.8496" y="56.9884" width="36.1254" height="3.64321" rx="1.82161" fill="#5655B9"/>
<rect x="45.2363" y="57.8989" width="30.4808" height="1.82161" rx="0.910803" fill="#3629B7"/>
<path d="M66.7211 19.6447H65.1408H47.4483C45.2926 19.6447 43.5445 20.5291 43.5189 21.6247C43.5189 21.6328 43.5166 21.6404 43.5166 21.6485C43.5166 21.6566 43.5189 21.6642 43.5189 21.6723V54.1055H58.7101C59.5691 54.5341 60.7437 54.7991 62.0407 54.7991C63.3377 54.7991 64.5119 54.5341 65.3713 54.1055C66.6337 53.4755 66.7211 52.7711 66.7211 51.9273L66.8043 21.6485C66.8043 20.5418 68.5645 19.6447 70.736 19.6447H66.7211Z" fill="#FF4267"/>
<g filter="url(#filter0_d_2014_3446)">
<path d="M58.2989 51.8662C58.2989 51.5834 58.3632 51.3106 58.475 51.0509H58.2989L41.1797 52.7776L42.0662 53.5699C42.9927 54.3979 44.4728 54.8879 46.048 54.8879H62.9475C60.3803 54.8879 58.2989 53.5351 58.2989 51.8662Z" fill="#3629B7"/>
</g>
<path d="M58.0903 26.0833L60.9486 30.0931C61.0901 30.2916 61.005 30.5456 60.7575 30.6605L52.4444 34.5202C52.1974 34.6349 51.8824 34.5672 51.7406 34.3683L48.8823 30.3585C48.7408 30.16 48.8264 29.9058 49.0734 29.7912L57.386 25.9317C57.6335 25.8168 57.9488 25.8848 58.0903 26.0833Z" fill="#3629B7"/>
<path d="M54.7285 31.0604L51.4893 32.5644L51.6925 32.8496L54.9318 31.3456L54.7285 31.0604Z" fill="#FDFEFF"/>
<path d="M53.4586 32.3611L51.8691 33.0991L52.0724 33.3842L53.6619 32.6462L53.4586 32.3611Z" fill="#FDFEFF"/>
<path d="M54.4226 31.9463L53.7012 32.2812L53.9044 32.5664L54.6258 32.2314L54.4226 31.9463Z" fill="#FDFEFF"/>
<path d="M52.1508 30.8343L50.8933 31.4182C50.8016 31.4607 50.7702 31.5549 50.823 31.629L51.1642 32.1078C51.217 32.1818 51.3337 32.2072 51.4254 32.1646L52.6829 31.5808C52.7746 31.5382 52.806 31.4441 52.7532 31.37L52.4122 30.8916C52.3599 30.8173 52.2425 30.7917 52.1508 30.8343Z" fill="#FDFEFF"/>
<path d="M57.5951 27.335C57.5309 27.1381 57.2811 27.0204 57.0372 27.0722C56.7934 27.1239 56.6477 27.3255 56.7119 27.5224C56.7761 27.7193 57.0258 27.837 57.2697 27.7853C57.5136 27.7335 57.6593 27.532 57.5951 27.335Z" fill="#FDFEFF"/>
<path d="M57.0845 27.6091C57.0121 27.414 56.7576 27.3032 56.516 27.3616C56.2744 27.42 56.1373 27.6254 56.2097 27.8205C56.2821 28.0155 56.5367 28.1263 56.7782 28.0679C57.0198 28.0096 57.157 27.8041 57.0845 27.6091Z" fill="#FDFEFF"/>
<path d="M60.2977 43.0417C60.1769 45.4061 57.7032 47.2442 54.7717 47.1467C54.3712 47.1334 53.9829 47.0846 53.6112 47.0041C53.1438 46.9033 52.7028 46.7523 52.2969 46.5594C51.9346 46.3872 51.6004 46.1812 51.3005 45.9474C51.2088 45.876 51.1203 45.8019 51.0354 45.7253C50.6616 45.389 50.3534 45.0055 50.1258 44.5877C50.0812 44.5062 50.0397 44.4234 50.0018 44.3394C49.7683 43.8263 49.6537 43.2684 49.6833 42.6886C49.686 42.6357 49.69 42.5826 49.6957 42.5298C49.9157 40.2423 52.3442 38.4882 55.2093 38.5836C55.9144 38.607 56.5816 38.7403 57.1867 38.9621C57.3035 39.005 57.4182 39.0511 57.5302 39.1004C58.02 39.3158 58.462 39.5912 58.8418 39.9141C58.9255 39.9852 59.0063 40.0585 59.0838 40.1341C59.3596 40.4029 59.5952 40.699 59.7836 41.0164C59.9778 41.3435 60.1219 41.6933 60.2083 42.0589C60.2713 42.3259 60.3035 42.6012 60.3016 42.8825C60.302 42.9356 60.3004 42.9887 60.2977 43.0417Z" fill="#FDD462"/>
<path opacity="0.3" d="M60.2083 42.0591L53.6112 47.0042C53.1438 46.9034 52.7028 46.7524 52.2969 46.5595L59.7835 41.0166C59.9778 41.3438 60.1219 41.6936 60.2083 42.0591Z" fill="white"/>
<path opacity="0.3" d="M57.5304 39.1004L50.126 44.5877C50.0814 44.5061 50.0399 44.4233 50.002 44.3393L57.1869 38.962C57.3038 39.005 57.4184 39.0511 57.5304 39.1004Z" fill="white"/>
<path opacity="0.3" d="M59.0835 40.1344L51.3003 45.9476C51.2086 45.8762 51.1201 45.8021 51.0352 45.7255L58.8416 39.9143C58.9253 39.9855 59.0059 40.0588 59.0835 40.1344Z" fill="white"/>
<path d="M59.2327 43.0062C59.23 43.0587 59.2256 43.1112 59.2205 43.1632C59.0254 44.9742 57.0899 46.3629 54.8159 46.2872C52.542 46.2116 50.7547 44.6991 50.7451 42.8813C50.7454 42.8292 50.7464 42.7765 50.749 42.724C50.8454 40.837 52.8267 39.3653 55.1657 39.443C57.5047 39.5208 59.3291 41.1193 59.2327 43.0062Z" fill="#F37E00"/>
<path d="M59.2205 43.1633C59.0254 44.9743 57.0899 46.363 54.8159 46.2874C54.765 46.2857 54.7148 46.283 54.6645 46.2799C54.158 46.2488 53.6777 46.1462 53.2378 45.9847C52.7978 45.8232 52.3987 45.6034 52.0555 45.3374C51.9682 45.27 51.8846 45.1998 51.8042 45.1263C51.4407 44.7923 51.1558 44.4021 50.9744 43.9742C50.9304 43.8718 50.8925 43.7668 50.8612 43.6606C50.7862 43.4099 50.7468 43.1488 50.7451 42.8814C50.9403 41.0705 52.8758 39.6813 55.1497 39.7569C55.4373 39.7665 55.7172 39.7993 55.9873 39.8527C56.1246 39.8797 56.2599 39.9125 56.3919 39.9503C56.9312 40.1046 57.4194 40.3441 57.8325 40.6482C57.9217 40.7138 58.0077 40.7827 58.0899 40.8548C58.4095 41.1333 58.6723 41.4544 58.8636 41.8056C59.05 42.148 59.1687 42.5183 59.207 42.9056C59.2157 42.9904 59.2202 43.0767 59.2205 43.1633Z" fill="#F7A219"/>
<path opacity="0.2" d="M59.2065 42.9053L54.664 46.2797C54.1575 46.2485 53.6772 46.1459 53.2373 45.9845L58.8632 41.8052C59.0496 42.1477 59.1682 42.518 59.2065 42.9053Z" fill="#FBE6A1"/>
<path opacity="0.2" d="M56.392 39.9501L50.9745 43.9741C50.9305 43.8717 50.8927 43.7666 50.8613 43.6604L55.9874 39.8524C56.1247 39.8794 56.26 39.9122 56.392 39.9501Z" fill="#FBE6A1"/>
<path opacity="0.2" d="M58.0885 40.8548L52.054 45.3375C51.9668 45.2701 51.8832 45.1998 51.8027 45.1263L57.831 40.6482C57.9202 40.7138 58.0062 40.7827 58.0885 40.8548Z" fill="#FBE6A1"/>
<path d="M55.4815 44.8263L55.4525 45.3949L54.5573 45.3651L54.585 44.8222C53.9517 44.7703 53.3429 44.6116 52.9717 44.4094L53.4992 43.5444C53.908 43.7582 54.4603 43.9048 54.9491 43.921C55.3746 43.9352 55.5305 43.8686 55.5369 43.7456C55.5599 43.2949 53.0842 43.5768 53.1525 42.2399C53.1821 41.6611 53.7276 41.1918 54.7749 41.1087L54.8035 40.5503L55.6987 40.5801L55.6706 41.1282C56.1386 41.1797 56.5909 41.2922 56.9444 41.4681L56.4488 42.3291C56.0198 42.1352 55.6116 42.0344 55.2244 42.0215C54.7863 42.0069 54.6413 42.1047 54.6351 42.2277C54.6131 42.6579 57.0885 42.3811 57.021 43.7026C56.9925 44.2557 56.4727 44.7207 55.4815 44.8263Z" fill="#F37E00"/>
<path d="M55.4649 44.6362L55.4359 45.2047L54.5407 45.175L54.5684 44.632C53.9351 44.5802 53.3263 44.4214 52.9551 44.2192L53.4826 43.3543C53.8914 43.568 54.4437 43.7146 54.9325 43.7309C55.358 43.745 55.514 43.6784 55.5203 43.5554C55.5433 43.1047 53.0676 43.3867 53.1359 42.0498C53.1655 41.471 53.711 41.0017 54.7583 40.9185L54.7869 40.3602L55.6821 40.3899L55.654 40.938C56.122 40.9894 56.5743 41.102 56.9278 41.2779L56.4322 42.1388C56.0032 41.945 55.595 41.8442 55.2078 41.8313C54.7697 41.8167 54.6247 41.9146 54.6185 42.0374C54.5965 42.4677 57.0719 42.1908 57.0045 43.5123C56.976 44.0656 56.4561 44.5306 55.4649 44.6362Z" fill="#FDD462"/>
<rect x="43.0215" y="100.096" width="31.815" height="6.62402" rx="3.31201" fill="#FFAF2A"/>
<path d="M56.6225 102.876C56.6225 103.025 56.5865 103.165 56.5145 103.296C56.4452 103.427 56.3345 103.532 56.1825 103.612C56.0332 103.692 55.8439 103.732 55.6145 103.732H55.1465V104.804H54.5865V102.012H55.6145C55.8305 102.012 56.0145 102.049 56.1665 102.124C56.3185 102.199 56.4319 102.301 56.5065 102.432C56.5839 102.563 56.6225 102.711 56.6225 102.876ZM55.5905 103.28C55.7452 103.28 55.8599 103.245 55.9345 103.176C56.0092 103.104 56.0465 103.004 56.0465 102.876C56.0465 102.604 55.8945 102.468 55.5905 102.468H55.1465V103.28H55.5905ZM56.8761 103.688C56.8761 103.464 56.9201 103.265 57.0081 103.092C57.0988 102.919 57.2201 102.785 57.3721 102.692C57.5268 102.599 57.6988 102.552 57.8881 102.552C58.0535 102.552 58.1975 102.585 58.3201 102.652C58.4455 102.719 58.5455 102.803 58.6201 102.904V102.588H59.1841V104.804H58.6201V104.48C58.5481 104.584 58.4481 104.671 58.3201 104.74C58.1948 104.807 58.0495 104.84 57.8841 104.84C57.6975 104.84 57.5268 104.792 57.3721 104.696C57.2201 104.6 57.0988 104.465 57.0081 104.292C56.9201 104.116 56.8761 103.915 56.8761 103.688ZM58.6201 103.696C58.6201 103.56 58.5935 103.444 58.5401 103.348C58.4868 103.249 58.4148 103.175 58.3241 103.124C58.2335 103.071 58.1361 103.044 58.0321 103.044C57.9281 103.044 57.8321 103.069 57.7441 103.12C57.6561 103.171 57.5841 103.245 57.5281 103.344C57.4748 103.44 57.4481 103.555 57.4481 103.688C57.4481 103.821 57.4748 103.939 57.5281 104.04C57.5841 104.139 57.6561 104.215 57.7441 104.268C57.8348 104.321 57.9308 104.348 58.0321 104.348C58.1361 104.348 58.2335 104.323 58.3241 104.272C58.4148 104.219 58.4868 104.144 58.5401 104.048C58.5935 103.949 58.6201 103.832 58.6201 103.696ZM61.8511 102.588L60.4791 105.852H59.8831L60.3631 104.748L59.4751 102.588H60.1031L60.6751 104.136L61.2551 102.588H61.8511Z" fill="white"/>
<g clip-path="url(#clip0_2014_3446)">
<path d="M29.7949 81.6032H15.7398C15.3088 81.6032 14.959 81.8853 14.959 82.2343V96.7507L18.0823 94.8573L20.4248 96.7507L22.7673 94.8573L25.1099 96.7507L27.4524 94.8573L30.5757 96.7507V82.2343C30.5757 81.8853 30.2259 81.6032 29.7949 81.6032ZM23.5482 91.7015H18.0823V90.4392H23.5482V91.7015ZM23.5482 89.177H18.0823V87.9147H23.5482V89.177ZM23.5482 86.6524H18.0823V85.3901H23.5482V86.6524ZM27.4524 91.7015H25.1099V90.4392H27.4524V91.7015ZM27.4524 89.177H25.1099V87.9147H27.4524V89.177ZM27.4524 86.6524H25.1099V85.3901H27.4524V86.6524Z" fill="#FFAF2A"/>
</g>
<defs>
<filter id="filter0_d_2014_3446" x="11.1797" y="26.0509" width="81.7676" height="63.837" filterUnits="userSpaceOnUse" color-interpolation-filters="sRGB">
<feFlood flood-opacity="0" result="BackgroundImageFix"/>
<feColorMatrix in="SourceAlpha" type="matrix" values="0 0 0 0 0 0 0 0 0 0 0 0 0 0 0 0 0 0 127 0" result="hardAlpha"/>
<feOffset dy="5"/>
<feGaussianBlur stdDeviation="15"/>
<feColorMatrix type="matrix" values="0 0 0 0 0 0 0 0 0 0 0 0 0 0 0 0 0 0 0.05 0"/>
<feBlend mode="normal" in2="BackgroundImageFix" result="effect1_dropShadow_2014_3446"/>
<feBlend mode="normal" in="SourceGraphic" in2="effect1_dropShadow_2014_3446" result="shape"/>
</filter>
<clipPath id="clip0_2014_3446">
<rect width="18.7401" height="15.1475" fill="white" transform="translate(13.3975 81.6032)"/>
</clipPath>
</defs>
</svg>
