<svg width="55" height="55" viewBox="0 0 55 55" fill="none" xmlns="http://www.w3.org/2000/svg">
<path d="M43.8624 29.6542C43.9541 28.9667 43.9999 28.2562 43.9999 27.5C43.9999 26.7667 43.9541 26.0333 43.8395 25.3458L48.4916 21.725C48.9041 21.4042 49.0187 20.7854 48.7666 20.3271L44.3666 12.7187C44.0916 12.2146 43.5187 12.0542 43.0145 12.2146L37.5374 14.4146C36.3916 13.5437 35.177 12.8104 33.8249 12.2604L32.9999 6.43958C32.9083 5.88958 32.4499 5.5 31.8999 5.5H23.0999C22.5499 5.5 22.1145 5.88958 22.0228 6.43958L21.1978 12.2604C19.8458 12.8104 18.6083 13.5667 17.4853 14.4146L12.0083 12.2146C11.5041 12.0312 10.9312 12.2146 10.6562 12.7187L6.27909 20.3271C6.00409 20.8083 6.09576 21.4042 6.55409 21.725L11.2062 25.3458C11.0916 26.0333 10.9999 26.7896 10.9999 27.5C10.9999 28.2104 11.0458 28.9667 11.1603 29.6542L6.50826 33.275C6.09576 33.5958 5.98118 34.2146 6.23326 34.6729L10.6333 42.2812C10.9083 42.7854 11.4812 42.9458 11.9853 42.7854L17.4624 40.5854C18.6083 41.4562 19.8228 42.1896 21.1749 42.7396L21.9999 48.5604C22.1145 49.1104 22.5499 49.5 23.0999 49.5H31.8999C32.4499 49.5 32.9083 49.1104 32.977 48.5604L33.802 42.7396C35.1541 42.1896 36.3916 41.4562 37.5145 40.5854L42.9916 42.7854C43.4958 42.9688 44.0687 42.7854 44.3437 42.2812L48.7437 34.6729C49.0187 34.1687 48.9041 33.5958 48.4687 33.275L43.8624 29.6542ZM27.4999 35.75C22.9624 35.75 19.2499 32.0375 19.2499 27.5C19.2499 22.9625 22.9624 19.25 27.4999 19.25C32.0374 19.25 35.7499 22.9625 35.7499 27.5C35.7499 32.0375 32.0374 35.75 27.4999 35.75Z" fill="#F37E00"/>
</svg>
