<svg width="10" height="14" viewBox="0 0 10 14" fill="none" xmlns="http://www.w3.org/2000/svg">
<path d="M1.25 13.125C0.906251 13.125 0.611876 13.0025 0.366876 12.7575C0.121876 12.5125 -0.000415606 12.2183 1.06112e-06 11.875V5.625C1.06112e-06 5.28125 0.122501 4.98688 0.367501 4.74188C0.612501 4.49688 0.906668 4.37458 1.25 4.375H1.875V3.125C1.875 2.26042 2.17979 1.52333 2.78938 0.91375C3.39896 0.304167 4.13583 -0.00041624 5 4.26913e-07C5.86458 4.26913e-07 6.60167 0.304792 7.21125 0.914375C7.82083 1.52396 8.12542 2.26083 8.125 3.125V4.375H8.75C9.09375 4.375 9.38813 4.4975 9.63313 4.7425C9.87813 4.9875 10.0004 5.28167 10 5.625V11.875C10 12.2188 9.8775 12.5131 9.6325 12.7581C9.3875 13.0031 9.09333 13.1254 8.75 13.125H1.25ZM5 10C5.34375 10 5.63813 9.8775 5.88313 9.6325C6.12813 9.3875 6.25042 9.09333 6.25 8.75C6.25 8.40625 6.1275 8.11188 5.8825 7.86688C5.6375 7.62188 5.34333 7.49958 5 7.5C4.65625 7.5 4.36188 7.6225 4.11688 7.8675C3.87188 8.1125 3.74958 8.40667 3.75 8.75C3.75 9.09375 3.8725 9.38813 4.1175 9.63313C4.3625 9.87813 4.65667 10.0004 5 10ZM3.125 4.375H6.875V3.125C6.875 2.60417 6.69271 2.16146 6.32813 1.79688C5.96354 1.43229 5.52083 1.25 5 1.25C4.47917 1.25 4.03646 1.43229 3.67188 1.79688C3.30729 2.16146 3.125 2.60417 3.125 3.125V4.375Z" fill="white"/>
</svg>
