<svg width="20" height="20" viewBox="0 0 20 20" fill="none" xmlns="http://www.w3.org/2000/svg">
<path d="M10.0002 1.66663C5.5585 5.45829 3.3335 8.73329 3.3335 11.5C3.3335 15.65 6.50016 18.3333 10.0002 18.3333C13.5002 18.3333 16.6668 15.65 16.6668 11.5C16.6668 8.73329 14.4418 5.45829 10.0002 1.66663ZM10.0002 16.6666C7.2085 16.6666 5.00016 14.525 5.00016 11.5C5.00016 9.54996 6.62516 6.96663 10.0002 3.88329C13.3752 6.96663 15.0002 9.54163 15.0002 11.5C15.0002 14.525 12.7918 16.6666 10.0002 16.6666ZM6.52516 11.6666C6.8335 11.6666 7.0835 11.8833 7.14183 12.1833C7.4835 14.0333 9.04183 14.6666 10.1752 14.575C10.5335 14.5583 10.8335 14.8416 10.8335 15.2C10.8335 15.5333 10.5668 15.8083 10.2335 15.825C8.4585 15.9333 6.3835 14.9166 5.9085 12.3916C5.84183 12.0166 6.14183 11.6666 6.52516 11.6666Z" fill="white"/>
</svg>
